<svg width="13" height="13" viewBox="0 0 13 13" fill="none" xmlns="http://www.w3.org/2000/svg">
<path d="M8.28229 5.13057L10.2126 3.20029L12.1429 5.13057" stroke="#3E3E3E" stroke-linecap="round" stroke-linejoin="round"/>
<path d="M8.28229 8.21973L10.2126 10.15L12.1429 8.21973" stroke="#3E3E3E" stroke-linecap="round" stroke-linejoin="round"/>
<path d="M3.82855 4.23229C4.04515 4.23934 4.26097 4.20277 4.46316 4.12475C4.66535 4.04673 4.84979 3.92885 5.00551 3.77812C5.16123 3.62739 5.28505 3.44689 5.36961 3.24735C5.45418 3.0478 5.49775 2.83329 5.49775 2.61657C5.49775 2.39985 5.45418 2.18534 5.36961 1.9858C5.28505 1.78625 5.16123 1.60575 5.00551 1.45502C4.84979 1.30429 4.66535 1.18641 4.46316 1.10839C4.26097 1.03037 4.04515 0.993801 3.82855 1.00086C3.39981 1.00086 2.98862 1.17117 2.68546 1.47434C2.38229 1.77751 2.21198 2.18869 2.21198 2.61743C2.21198 3.04617 2.38229 3.45735 2.68546 3.76052C2.98862 4.06368 3.39981 4.234 3.82855 4.234V4.23229Z" stroke="#3E3E3E" stroke-linecap="round" stroke-linejoin="round"/>
<path d="M6.658 7.06258C6.658 6.31228 6.35995 5.59272 5.82941 5.06218C5.29886 4.53164 4.5793 4.23358 3.829 4.23358C3.0787 4.23358 2.35914 4.53164 1.82859 5.06218C1.29805 5.59272 1 6.31228 1 7.06258V8.27458H2.21286L2.61657 11.5077H5.04229L5.44514 8.27458H6.658V7.06258Z" stroke="#3E3E3E" stroke-linecap="round" stroke-linejoin="round"/>
</svg>
