<svg width="11" height="12" viewBox="0 0 11 12" fill="none" xmlns="http://www.w3.org/2000/svg">
<path d="M3.5 2.75C3.77614 2.75 4 2.52614 4 2.25C4 1.97386 3.77614 1.75 3.5 1.75V2.75ZM7.25 1.75C6.97386 1.75 6.75 1.97386 6.75 2.25C6.75 2.52614 6.97386 2.75 7.25 2.75V1.75ZM3.5 1.75C3.22386 1.75 3 1.97386 3 2.25C3 2.52614 3.22386 2.75 3.5 2.75V1.75ZM7.25 2.75C7.52614 2.75 7.75 2.52614 7.75 2.25C7.75 1.97386 7.52614 1.75 7.25 1.75V2.75ZM4 2.25C4 1.97386 3.77614 1.75 3.5 1.75C3.22386 1.75 3 1.97386 3 2.25H4ZM3 2.875C3 3.15114 3.22386 3.375 3.5 3.375C3.77614 3.375 4 3.15114 4 2.875H3ZM3 2.25C3 2.52614 3.22386 2.75 3.5 2.75C3.77614 2.75 4 2.52614 4 2.25H3ZM4 1C4 0.723858 3.77614 0.5 3.5 0.5C3.22386 0.5 3 0.723858 3 1H4ZM7.75 2.25C7.75 1.97386 7.52614 1.75 7.25 1.75C6.97386 1.75 6.75 1.97386 6.75 2.25H7.75ZM6.75 2.875C6.75 3.15114 6.97386 3.375 7.25 3.375C7.52614 3.375 7.75 3.15114 7.75 2.875H6.75ZM6.75 2.25C6.75 2.52614 6.97386 2.75 7.25 2.75C7.52614 2.75 7.75 2.52614 7.75 2.25H6.75ZM7.75 1C7.75 0.723858 7.52614 0.5 7.25 0.5C6.97386 0.5 6.75 0.723858 6.75 1H7.75ZM3.5 1.75C1.84315 1.75 0.5 3.09315 0.5 4.75H1.5C1.5 3.64543 2.39543 2.75 3.5 2.75V1.75ZM0.5 4.75V8.5H1.5V4.75H0.5ZM0.5 8.5C0.5 10.1569 1.84315 11.5 3.5 11.5V10.5C2.39543 10.5 1.5 9.60457 1.5 8.5H0.5ZM3.5 11.5H7.25V10.5H3.5V11.5ZM7.25 11.5C8.90685 11.5 10.25 10.1569 10.25 8.5H9.25C9.25 9.60457 8.35457 10.5 7.25 10.5V11.5ZM10.25 8.5V4.75H9.25V8.5H10.25ZM10.25 4.75C10.25 3.09315 8.90685 1.75 7.25 1.75V2.75C8.35457 2.75 9.25 3.64543 9.25 4.75H10.25ZM3.5 2.75L7.25 2.75V1.75L3.5 1.75V2.75ZM3 2.25V2.875H4V2.25H3ZM4 2.25V1H3V2.25H4ZM6.75 2.25V2.875H7.75V2.25H6.75ZM7.75 2.25V1H6.75V2.25H7.75Z" fill="#979797"/>
<path d="M2.875 6.625L4.125 8.5L7.875 5.375" stroke="#979797" stroke-linecap="round" stroke-linejoin="round"/>
</svg>
