<svg width="24" height="27" viewBox="0 0 24 27" fill="none" xmlns="http://www.w3.org/2000/svg">
<path fill-rule="evenodd" clip-rule="evenodd" d="M7.11724 4.05879C3.73861 4.05879 0.999681 6.79772 0.999681 10.1764V19.3527C0.999681 22.7313 3.73861 25.4702 7.11724 25.4702H16.2936C19.6722 25.4702 22.4111 22.7313 22.4111 19.3527V10.1764C22.4111 6.79772 19.6722 4.05879 16.2936 4.05879M7.11712 4.05878L16.2935 4.05878ZM7.11749 4.05879V5.58818ZM7.11749 4.05878V1ZM16.2933 4.05879V5.58818ZM16.2933 4.05878V1Z" fill="#A9D9BA"/>
<path d="M7.11724 5.05879C7.66952 5.05879 8.11724 4.61108 8.11724 4.05879C8.11724 3.50651 7.66952 3.05879 7.11724 3.05879V5.05879ZM16.2936 3.05879C15.7413 3.05879 15.2936 3.50651 15.2936 4.05879C15.2936 4.61108 15.7413 5.05879 16.2936 5.05879V3.05879ZM7.11712 3.05878C6.56484 3.05878 6.11712 3.50649 6.11712 4.05878C6.11712 4.61106 6.56484 5.05878 7.11712 5.05878V3.05878ZM16.2935 5.05878C16.8457 5.05878 17.2935 4.61106 17.2935 4.05878C17.2935 3.50649 16.8457 3.05878 16.2935 3.05878V5.05878ZM8.11749 4.05879C8.11749 3.50651 7.66977 3.05879 7.11749 3.05879C6.5652 3.05879 6.11749 3.50651 6.11749 4.05879H8.11749ZM6.11749 5.58818C6.11749 6.14047 6.5652 6.58818 7.11749 6.58818C7.66977 6.58818 8.11749 6.14047 8.11749 5.58818H6.11749ZM6.11749 4.05878C6.11749 4.61106 6.5652 5.05878 7.11749 5.05878C7.66977 5.05878 8.11749 4.61106 8.11749 4.05878H6.11749ZM8.11749 1C8.11749 0.447715 7.66977 0 7.11749 0C6.5652 0 6.11749 0.447715 6.11749 1H8.11749ZM17.2933 4.05879C17.2933 3.50651 16.8456 3.05879 16.2933 3.05879C15.741 3.05879 15.2933 3.50651 15.2933 4.05879H17.2933ZM15.2933 5.58818C15.2933 6.14047 15.741 6.58818 16.2933 6.58818C16.8456 6.58818 17.2933 6.14047 17.2933 5.58818H15.2933ZM15.2933 4.05878C15.2933 4.61106 15.741 5.05878 16.2933 5.05878C16.8456 5.05878 17.2933 4.61106 17.2933 4.05878H15.2933ZM17.2933 1C17.2933 0.447715 16.8456 0 16.2933 0C15.741 0 15.2933 0.447715 15.2933 1L17.2933 1ZM7.11724 3.05879C3.18632 3.05879 -0.000318527 6.24543 -0.000318527 10.1764H1.99968C1.99968 7.35 4.29089 5.05879 7.11724 5.05879V3.05879ZM-0.000318527 10.1764V19.3527H1.99968V10.1764H-0.000318527ZM-0.000318527 19.3527C-0.000318527 23.2836 3.18632 26.4702 7.11724 26.4702V24.4702C4.29089 24.4702 1.99968 22.179 1.99968 19.3527H-0.000318527ZM7.11724 26.4702H16.2936V24.4702H7.11724V26.4702ZM16.2936 26.4702C20.2245 26.4702 23.4111 23.2836 23.4111 19.3527H21.4111C21.4111 22.179 19.1199 24.4702 16.2936 24.4702V26.4702ZM23.4111 19.3527V10.1764H21.4111V19.3527H23.4111ZM23.4111 10.1764C23.4111 6.24543 20.2245 3.05879 16.2936 3.05879V5.05879C19.1199 5.05879 21.4111 7.35 21.4111 10.1764H23.4111ZM7.11712 5.05878L16.2935 5.05878V3.05878L7.11712 3.05878V5.05878ZM6.11749 4.05879V5.58818H8.11749V4.05879H6.11749ZM8.11749 4.05878V1H6.11749V4.05878H8.11749ZM15.2933 4.05879V5.58818H17.2933V4.05879H15.2933ZM17.2933 4.05878V1L15.2933 1V4.05878H17.2933Z" fill="#322D29"/>
<path d="M5.58789 14.7643L8.64667 19.3525L17.823 11.7056" stroke="#322D29" stroke-width="2" stroke-linecap="round" stroke-linejoin="round"/>
</svg>
