<svg width="305" height="59" viewBox="0 0 305 59" fill="none" xmlns="http://www.w3.org/2000/svg">
<rect width="305" height="59" rx="29.5" fill="#F2BC79"/>
<path d="M126.216 37.472C126.216 38.08 126.072 38.664 125.784 39.224C125.512 39.784 125.12 40.272 124.608 40.688C124.112 41.104 123.504 41.432 122.784 41.672C122.064 41.928 121.264 42.056 120.384 42.056C119.504 42.056 118.704 41.928 117.984 41.672C117.264 41.432 116.648 41.104 116.136 40.688C115.64 40.272 115.248 39.784 114.96 39.224C114.688 38.664 114.552 38.08 114.552 37.472C114.552 36.88 114.688 36.312 114.96 35.768C115.248 35.208 115.64 34.72 116.136 34.304C116.648 33.872 117.264 33.536 117.984 33.296C118.704 33.04 119.504 32.912 120.384 32.912C121.264 32.912 122.064 33.04 122.784 33.296C123.504 33.536 124.12 33.872 124.632 34.304C125.144 34.72 125.536 35.208 125.808 35.768C126.08 36.312 126.216 36.88 126.216 37.472ZM123.624 37.472C123.624 37.136 123.536 36.824 123.36 36.536C123.2 36.232 122.976 35.976 122.688 35.768C122.4 35.544 122.056 35.376 121.656 35.264C121.272 35.136 120.848 35.072 120.384 35.072C119.92 35.072 119.488 35.136 119.088 35.264C118.704 35.376 118.368 35.544 118.08 35.768C117.792 35.976 117.56 36.232 117.384 36.536C117.224 36.824 117.144 37.136 117.144 37.472C117.144 37.824 117.224 38.144 117.384 38.432C117.56 38.72 117.792 38.968 118.08 39.176C118.368 39.384 118.704 39.544 119.088 39.656C119.488 39.784 119.92 39.848 120.384 39.848C120.832 39.848 121.256 39.784 121.656 39.656C122.056 39.544 122.4 39.384 122.688 39.176C122.976 38.968 123.2 38.72 123.36 38.432C123.536 38.144 123.624 37.824 123.624 37.472ZM110.304 31.928V29.768H130.464V31.928H110.304ZM113.592 28.136V20.168H127.128V22.328H116.16V25.976H127.44V28.136H113.592ZM135.454 34.736H149.134V41.264H146.542V36.944H135.454V34.736ZM132.382 33.128V30.968H141.166V29.288H135.886V23.552H146.35V22.208H135.862V20.024H148.942V25.736H138.478V27.104H149.47V29.288H143.782V30.968H152.542V33.128H132.382ZM172.028 19.472V27.704H175.58V29.912H172.028V40.472H169.436V19.472H172.028ZM155.036 25.76V23.6H167.516V25.76H155.036ZM157.628 22.088V19.88H164.996V22.088H157.628ZM163.796 31.16C163.796 30.44 163.548 29.864 163.052 29.432C162.572 28.984 161.988 28.76 161.3 28.76C160.964 28.76 160.636 28.824 160.316 28.952C160.012 29.064 159.74 29.224 159.5 29.432C159.276 29.64 159.092 29.896 158.948 30.2C158.82 30.488 158.756 30.808 158.756 31.16C158.756 31.528 158.82 31.864 158.948 32.168C159.092 32.456 159.276 32.712 159.5 32.936C159.74 33.16 160.012 33.336 160.316 33.464C160.636 33.576 160.964 33.632 161.3 33.632C161.636 33.632 161.956 33.576 162.26 33.464C162.564 33.336 162.828 33.16 163.052 32.936C163.292 32.712 163.476 32.456 163.604 32.168C163.732 31.864 163.796 31.528 163.796 31.16ZM166.22 31.16C166.22 31.848 166.084 32.472 165.812 33.032C165.54 33.592 165.18 34.072 164.732 34.472C164.284 34.872 163.756 35.184 163.148 35.408C162.556 35.616 161.94 35.72 161.3 35.72C160.644 35.72 160.012 35.616 159.404 35.408C158.812 35.184 158.284 34.872 157.82 34.472C157.372 34.072 157.012 33.592 156.74 33.032C156.468 32.472 156.332 31.848 156.332 31.16C156.332 30.472 156.468 29.856 156.74 29.312C157.028 28.752 157.396 28.28 157.844 27.896C158.308 27.496 158.836 27.192 159.428 26.984C160.036 26.776 160.66 26.672 161.3 26.672C161.94 26.672 162.556 26.784 163.148 27.008C163.74 27.216 164.26 27.52 164.708 27.92C165.172 28.304 165.54 28.776 165.812 29.336C166.084 29.88 166.22 30.488 166.22 31.16ZM176.97 33.248C179.434 32.272 181.45 30.912 183.018 29.168C184.586 27.424 185.538 25.48 185.874 23.336H178.362V21.056H188.706C188.706 22.896 188.442 24.552 187.914 26.024C187.402 27.496 186.69 28.816 185.778 29.984C184.914 31.104 183.882 32.104 182.682 32.984C181.498 33.848 180.154 34.616 178.65 35.288L176.97 33.248ZM192.33 19.472H194.922V40.472H192.33V19.472Z" fill="#322D29"/>
</svg>
