<svg width="50" height="50" viewBox="0 0 50 50" fill="none" xmlns="http://www.w3.org/2000/svg">
<path fill-rule="evenodd" clip-rule="evenodd" d="M26.338 10L24.7323 20.6913C24.6836 26.0611 28.9962 30.4542 34.366 30.5048C39.7358 30.4542 44.0484 26.0611 43.9997 20.6913L42.3941 10H26.338Z" stroke={color} stroke-width="2" stroke-linecap="round" stroke-linejoin="round"/>
<path d="M34.3654 38.9714C33.8131 38.9714 33.3654 39.4191 33.3654 39.9714C33.3654 40.5237 33.8131 40.9714 34.3654 40.9714V38.9714ZM41.8583 40.9714C42.4106 40.9714 42.8583 40.5237 42.8583 39.9714C42.8583 39.4191 42.4106 38.9714 41.8583 38.9714V40.9714ZM33.3651 39.9714C33.3651 40.5237 33.8128 40.9714 34.3651 40.9714C34.9173 40.9714 35.3651 40.5237 35.3651 39.9714H33.3651ZM35.3651 30.5069C35.3651 29.9546 34.9173 29.5069 34.3651 29.5069C33.8128 29.5069 33.3651 29.9546 33.3651 30.5069H35.3651ZM34.3653 40.9714C34.9176 40.9714 35.3653 40.5237 35.3653 39.9714C35.3653 39.4191 34.9176 38.9714 34.3653 38.9714V40.9714ZM26.8724 38.9714C26.3201 38.9714 25.8724 39.4191 25.8724 39.9714C25.8724 40.5237 26.3201 40.9714 26.8724 40.9714V38.9714ZM34.3654 40.9714H41.8583V38.9714H34.3654V40.9714ZM35.3651 39.9714V30.5069H33.3651V39.9714H35.3651ZM34.3653 38.9714H26.8724V40.9714H34.3653V38.9714Z" fill={color}/>
<path fill-rule="evenodd" clip-rule="evenodd" d="M6.60602 10L5.00041 20.6913C4.95171 26.0611 9.26431 30.4542 14.6341 30.5048C20.0039 30.4542 24.3165 26.0611 24.2678 20.6913L22.6622 10H6.60602Z" stroke={color} stroke-width="2" stroke-linecap="round" stroke-linejoin="round"/>
<path d="M14.6342 38.9714C14.0819 38.9714 13.6342 39.4191 13.6342 39.9714C13.6342 40.5237 14.0819 40.9714 14.6342 40.9714V38.9714ZM22.1271 40.9714C22.6793 40.9714 23.1271 40.5237 23.1271 39.9714C23.1271 39.4191 22.6793 38.9714 22.1271 38.9714V40.9714ZM13.6334 39.9714C13.6334 40.5237 14.0811 40.9714 14.6334 40.9714C15.1857 40.9714 15.6334 40.5237 15.6334 39.9714H13.6334ZM15.6334 30.5069C15.6334 29.9546 15.1857 29.5069 14.6334 29.5069C14.0811 29.5069 13.6334 29.9546 13.6334 30.5069H15.6334ZM14.634 40.9714C15.1863 40.9714 15.634 40.5237 15.634 39.9714C15.634 39.4191 15.1863 38.9714 14.634 38.9714V40.9714ZM7.14115 38.9714C6.58886 38.9714 6.14115 39.4191 6.14115 39.9714C6.14115 40.5237 6.58886 40.9714 7.14115 40.9714V38.9714ZM14.6342 40.9714H22.1271V38.9714H14.6342V40.9714ZM15.6334 39.9714V30.5069H13.6334V39.9714H15.6334ZM14.634 38.9714H7.14115V40.9714H14.634V38.9714Z" fill={color}/>
</svg>
