<svg width="50" height="50" viewBox="0 0 50 50" fill="none" xmlns="http://www.w3.org/2000/svg">
<path fill-rule="evenodd" clip-rule="evenodd" d="M10 29.8544C10.0316 33.9992 13.4143 37.3352 17.5591 37.3092H18.5836L21.6124 40.5041C21.9197 40.8211 22.3424 41 22.7839 41C23.2254 41 23.648 40.8211 23.9553 40.5041L26.9841 37.3092H28.0086C32.1501 37.3305 35.5276 33.9959 35.5592 29.8544V20.7809C35.5276 16.6361 32.1449 13.3001 28.0001 13.3261H17.5634C13.4169 13.2978 10.0316 16.6344 10 20.7809V29.8544Z" stroke={color} stroke-width="2" stroke-linecap="round" stroke-linejoin="round"/>
<path d="M14.3252 13.3261C14.3252 13.8784 14.7729 14.3261 15.3252 14.3261C15.8775 14.3261 16.3252 13.8784 16.3252 13.3261H14.3252ZM33.321 8.00128V9.00128C33.3272 9.00128 33.3334 9.00122 33.3396 9.0011L33.321 8.00128ZM38.6123 10.0791L37.9184 10.7992L37.9184 10.7992L38.6123 10.0791ZM40.8844 15.2899H41.8844C41.8844 15.2838 41.8844 15.2776 41.8843 15.2715L40.8844 15.2899ZM35.5596 30.4306C35.0073 30.4306 34.5596 30.8783 34.5596 31.4306C34.5596 31.9829 35.0073 32.4306 35.5596 32.4306V30.4306ZM16.3897 21.9108C15.8374 21.9108 15.3897 22.3586 15.3897 22.9108C15.3897 23.4631 15.8374 23.9108 16.3897 23.9108V21.9108ZM28.6688 23.9108C29.221 23.9108 29.6688 23.4631 29.6688 22.9108C29.6688 22.3586 29.221 21.9108 28.6688 21.9108V23.9108ZM17.9261 26.4007C17.3738 26.4007 16.9261 26.8484 16.9261 27.4007C16.9261 27.953 17.3738 28.4007 17.9261 28.4007V26.4007ZM27.1338 28.4007C27.6861 28.4007 28.1338 27.953 28.1338 27.4007C28.1338 26.8484 27.6861 26.4007 27.1338 26.4007V28.4007ZM16.3252 13.3261C16.3252 11.6544 16.9959 10.6519 18.0571 10.0096C19.1958 9.32033 20.8694 9.00128 22.8843 9.00128V7.00128C20.7246 7.00128 18.6186 7.33186 17.0214 8.29862C15.3467 9.31234 14.3252 10.9723 14.3252 13.3261H16.3252ZM22.8843 9.00128H33.321V7.00128H22.8843V9.00128ZM33.3396 9.0011C35.0439 8.96953 36.691 9.61631 37.9184 10.7992L39.3062 9.35904C37.6968 7.8081 35.5372 6.96004 33.3025 7.00145L33.3396 9.0011ZM37.9184 10.7992C39.1459 11.982 39.8531 13.604 39.8846 15.3084L41.8843 15.2715C41.843 13.0367 40.9156 10.91 39.3062 9.35904L37.9184 10.7992ZM39.8844 15.2899V24.1419H41.8844V15.2899H39.8844ZM39.8844 24.1419C39.8844 26.1052 39.6173 27.6993 38.9641 28.7779C38.3679 29.7624 37.383 30.4306 35.5596 30.4306V32.4306C37.9961 32.4306 39.6736 31.4672 40.6749 29.8138C41.6191 28.2545 41.8844 26.2043 41.8844 24.1419H39.8844ZM16.3897 23.9108H28.6688V21.9108H16.3897V23.9108ZM17.9261 28.4007H27.1338V26.4007H17.9261V28.4007Z" fill={color}/>
</svg>
