<svg width="50" height="50" viewBox="0 0 50 50" fill="none" xmlns="http://www.w3.org/2000/svg">
<path fill-rule="evenodd" clip-rule="evenodd" d="M30.8411 17.4253C30.8385 20.4184 28.4105 22.8429 25.4174 22.8411C22.4243 22.8394 19.9991 20.4121 20 17.419C20.0009 14.4259 22.4275 12 25.4206 12C26.8588 12.0006 28.2379 12.5726 29.2545 13.59C30.271 14.6075 30.8418 15.9871 30.8411 17.4253Z" stroke={color} stroke-width="2" stroke-linecap="round" stroke-linejoin="round"/>
<path fill-rule="evenodd" clip-rule="evenodd" d="M30.9116 26.8391H19.7328C15.8272 26.9618 12.7246 30.1634 12.7246 34.0709C12.7246 37.9784 15.8272 41.18 19.7328 41.3027H30.9116C34.8172 41.18 37.9198 37.9784 37.9198 34.0709C37.9198 30.1634 34.8172 26.9618 30.9116 26.8391V26.8391Z" stroke={color} stroke-width="2" stroke-linecap="round" stroke-linejoin="round"/>
<path fill-rule="evenodd" clip-rule="evenodd" d="M42.2914 20.1481C42.2901 22.4374 40.4334 24.2923 38.1441 24.2914C35.8548 24.2905 33.9996 22.4342 34 20.1449C34.0004 17.8556 35.8564 16 38.1457 16C39.2456 16 40.3004 16.4371 41.078 17.2151C41.8555 17.9931 42.292 19.0482 42.2914 20.1481V20.1481Z" stroke={color} stroke-width="2" stroke-linecap="round" stroke-linejoin="round"/>
<path fill-rule="evenodd" clip-rule="evenodd" d="M9 19.1457C9 21.4353 10.8561 23.2914 13.1457 23.2914C15.4353 23.2914 17.2914 21.4353 17.2914 19.1457C17.2914 16.8561 15.4353 15 13.1457 15C10.8561 15 9 16.8561 9 19.1457Z" stroke={color} stroke-width="2" stroke-linecap="round" stroke-linejoin="round"/>
<path d="M39.4969 27.4329C38.9446 27.4329 38.4969 27.8806 38.4969 28.4329C38.4969 28.9851 38.9446 29.4329 39.4969 29.4329V27.4329ZM42.2326 28.4329L42.2561 27.4331C42.2483 27.433 42.2404 27.4329 42.2326 27.4329L42.2326 28.4329ZM42.2326 39.4952V40.4952C42.2404 40.4952 42.2483 40.4951 42.2561 40.4949L42.2326 39.4952ZM39.4969 38.4952C38.9446 38.4952 38.4969 38.9429 38.4969 39.4952C38.4969 40.0475 38.9446 40.4952 39.4969 40.4952V38.4952ZM10.5031 29.4329C11.0554 29.4329 11.5031 28.9851 11.5031 28.4329C11.5031 27.8806 11.0554 27.4329 10.5031 27.4329V29.4329ZM7.76751 28.4329V27.4329C7.75965 27.4329 7.7518 27.433 7.74395 27.4331L7.76751 28.4329ZM7.76751 39.4952L7.74395 40.4949C7.7518 40.4951 7.75965 40.4952 7.76751 40.4952L7.76751 39.4952ZM10.5031 40.4952C11.0554 40.4952 11.5031 40.0475 11.5031 39.4952C11.5031 38.9429 11.0554 38.4952 10.5031 38.4952V40.4952ZM39.4969 29.4329H42.2326V27.4329H39.4969V29.4329ZM42.209 29.4326C44.2027 29.4796 46.0001 31.3768 46.0001 33.964H48.0001C48.0001 30.5298 45.5601 27.511 42.2561 27.4331L42.209 29.4326ZM46.0001 33.964C46.0001 36.5513 44.2027 38.4485 42.209 38.4955L42.2561 40.4949C45.5601 40.417 48.0001 37.3983 48.0001 33.964H46.0001ZM42.2326 38.4952H39.4969V40.4952H42.2326V38.4952ZM10.5031 27.4329H7.76751V29.4329H10.5031V27.4329ZM7.74395 27.4331C4.43994 27.511 2 30.5298 2 33.964H4C4 31.3768 5.79735 29.4796 7.79107 29.4326L7.74395 27.4331ZM2 33.964C2 37.3983 4.43994 40.417 7.74395 40.4949L7.79107 38.4955C5.79735 38.4485 4 36.5513 4 33.964H2ZM7.76751 40.4952H10.5031V38.4952H7.76751V40.4952Z" fill={color}/>
</svg>
