<svg width="129" height="127" viewBox="0 0 129 127" fill="none" xmlns="http://www.w3.org/2000/svg">
<path d="M96.5603 30.9365C96.328 25.6352 96.0106 20.338 95.6081 15.047C95.4395 12.8071 94.4733 10.7018 92.885 9.11351C91.2967 7.52517 89.1915 6.55902 86.9515 6.39044C63.0184 4.53652 38.9778 4.53652 15.0447 6.39044C12.8048 6.55902 10.6996 7.52517 9.11124 9.11351C7.5229 10.7018 6.55675 12.8071 6.38817 15.047C4.53728 38.8903 4.53728 62.8412 6.38817 86.6845C6.55675 88.9244 7.5229 91.0296 9.11124 92.6179C10.6996 94.2063 12.8048 95.1724 15.0447 95.341C20.6233 95.7546 26.1058 96.0816 31.5402 96.3124" stroke="#3E3E3E" stroke-width="10"/>
<path d="M32.6446 111.951C32.8132 114.191 33.7793 116.296 35.3677 117.885C36.956 119.473 39.0612 120.439 41.3011 120.608C65.2373 122.464 89.2814 122.464 113.218 120.608C115.457 120.439 117.563 119.473 119.151 117.885C120.739 116.296 121.706 114.191 121.874 111.951C123.724 88.1109 123.724 64.1633 121.874 40.3232C121.706 38.0833 120.739 35.978 119.151 34.3897C117.563 32.8014 115.457 31.8352 113.218 31.6666C89.2813 29.8123 65.2374 29.8123 41.3011 31.6666C39.0612 31.8352 36.956 32.8014 35.3677 34.3897C33.7793 35.978 32.8132 38.0833 32.6446 40.3232C30.7942 64.1633 30.7942 88.111 32.6446 111.951Z" stroke="#3E3E3E" stroke-width="10"/>
<path d="M56.9873 76.1436H97.5383" stroke="#3E3E3E" stroke-width="10" stroke-linecap="round"/>
<path d="M77.2529 55.8594V96.4104" stroke="#3E3E3E" stroke-width="10" stroke-linecap="round"/>
</svg>
