<svg width="30" height="30" viewBox="0 0 30 30" fill="none" xmlns="http://www.w3.org/2000/svg">
<rect width="30" height="30" rx="5" fill="#2BD9C7"/>
<path d="M19.521 10.5468C19.4892 9.82189 19.4458 9.09749 19.3908 8.37393C19.3677 8.06762 19.2356 7.77973 19.0184 7.56253C18.8012 7.34532 18.5133 7.2132 18.207 7.19014C14.9341 6.93662 11.6465 6.93662 8.37362 7.19014C8.06731 7.2132 7.77942 7.34532 7.56222 7.56253C7.34501 7.77973 7.21289 8.06762 7.18983 8.37393C6.93672 11.6345 6.93672 14.9099 7.18983 18.1705C7.21289 18.4768 7.34501 18.7647 7.56222 18.9819C7.77942 19.1991 8.06731 19.3312 8.37362 19.3542C9.13651 19.4108 9.88625 19.4555 10.6294 19.4871" fill="#2BD9C7"/>
<path d="M19.521 10.5468C19.4892 9.82189 19.4458 9.09749 19.3908 8.37393C19.3677 8.06762 19.2356 7.77973 19.0184 7.56253C18.8012 7.34532 18.5133 7.2132 18.207 7.19014C14.9341 6.93662 11.6465 6.93662 8.37362 7.19014C8.06731 7.2132 7.77942 7.34532 7.56222 7.56253C7.34501 7.77973 7.21289 8.06762 7.18983 8.37393C6.93672 11.6345 6.93672 14.9099 7.18983 18.1705C7.21289 18.4768 7.34501 18.7647 7.56222 18.9819C7.77942 19.1991 8.06731 19.3312 8.37362 19.3542C9.13651 19.4108 9.88625 19.4555 10.6294 19.4871" stroke="#3E3E3E" stroke-width="1.5"/>
<path d="M10.7806 21.6257C10.8037 21.932 10.9358 22.2199 11.153 22.4371C11.3702 22.6543 11.6581 22.7865 11.9644 22.8095C15.2377 23.0634 18.5257 23.0634 21.7991 22.8095C22.1054 22.7865 22.3933 22.6543 22.6105 22.4371C22.8277 22.2199 22.9598 21.932 22.9828 21.6257C23.2359 18.3656 23.2359 15.0907 22.9828 11.8305C22.9598 11.5242 22.8277 11.2363 22.6105 11.0191C22.3933 10.8019 22.1054 10.6698 21.7991 10.6467C18.5257 10.3931 15.2377 10.3931 11.9644 10.6467C11.6581 10.6698 11.3702 10.8019 11.153 11.0191C10.9358 11.2363 10.8037 11.5242 10.7806 11.8305C10.5276 15.0907 10.5276 18.3656 10.7806 21.6257Z" fill="#2BD9C7" stroke="#3E3E3E" stroke-width="1.5"/>
<path d="M14.1094 16.729H19.6548Z" fill="#2BD9C7"/>
<path d="M14.1094 16.729H19.6548" stroke="#3E3E3E" stroke-width="1.5" stroke-linecap="round"/>
<path d="M16.8809 13.9551V19.5005Z" fill="#2BD9C7"/>
<path d="M16.8809 13.9551V19.5005" stroke="#3E3E3E" stroke-width="1.5" stroke-linecap="round"/>
</svg>
