<svg width="16" height="14" viewBox="0 0 16 14" fill="none" xmlns="http://www.w3.org/2000/svg">
<path d="M1.51026 5.67529H3.92886V12.1153H1.51129C1.44419 12.1154 1.37773 12.1023 1.31571 12.0767C1.25368 12.0512 1.19731 12.0136 1.14982 11.9662C1.10232 11.9188 1.06465 11.8625 1.03894 11.8005C1.01323 11.7386 1 11.6721 1 11.605V6.18555C1 6.05022 1.05376 5.92044 1.14945 5.82475C1.24514 5.72905 1.37493 5.67529 1.51026 5.67529Z" stroke="#322D29" stroke-width="1.5" stroke-linecap="round" stroke-linejoin="round"/>
<path d="M3.92883 5.67536L6.52129 1.53155C6.62175 1.36766 6.76298 1.2326 6.9312 1.13957C7.09943 1.04653 7.28889 0.998691 7.48111 1.00071C7.63225 0.995349 7.78293 1.02031 7.92427 1.07411C8.0656 1.12792 8.19473 1.20948 8.30404 1.314C8.41335 1.41851 8.50062 1.54385 8.5607 1.68264C8.62079 1.82142 8.65248 1.97083 8.65389 2.12205V5.09206H13.1351C13.3008 5.09732 13.4634 5.13761 13.6123 5.21029C13.7612 5.28298 13.8931 5.38639 13.9991 5.51372C14.1052 5.64106 14.183 5.78942 14.2276 5.94903C14.2721 6.10864 14.2823 6.27588 14.2575 6.43973L13.4417 11.7059C13.4069 11.9873 13.2704 12.2463 13.0581 12.4342C12.8457 12.6222 12.572 12.7261 12.2885 12.7264H5.59233C5.27341 12.7275 4.95964 12.6544 4.67468 12.5124L3.93912 12.1452" stroke="#322D29" stroke-width="1.5" stroke-linecap="round" stroke-linejoin="round"/>
<path d="M3.92883 5.67529V12.1153" stroke="#322D29" stroke-width="1.5" stroke-linecap="round" stroke-linejoin="round"/>
</svg>
