<svg width="17" height="15" viewBox="0 0 17 15" fill="none" xmlns="http://www.w3.org/2000/svg">
<path d="M1.56568 6.18311H4.24695V13.3225H1.56682C1.49244 13.3227 1.41876 13.3081 1.34999 13.2798C1.28123 13.2514 1.21874 13.2098 1.16609 13.1572C1.11344 13.1047 1.07167 13.0423 1.04317 12.9736C1.01467 12.9049 1 12.8312 1 12.7568V6.74878C1 6.59876 1.0596 6.45487 1.16568 6.34879C1.27177 6.2427 1.41565 6.18311 1.56568 6.18311Z" stroke="#322D29" stroke-width="1.5" stroke-linecap="round" stroke-linejoin="round"/>
<path d="M4.24707 6.18313L7.12108 1.58928C7.23246 1.40758 7.38903 1.25786 7.57552 1.15472C7.76201 1.05159 7.97205 0.998549 8.18515 1.00079C8.3527 0.994844 8.51975 1.02251 8.67643 1.08216C8.83312 1.14181 8.97627 1.23223 9.09745 1.3481C9.21863 1.46396 9.31538 1.60292 9.38199 1.75677C9.4486 1.91063 9.48373 2.07626 9.4853 2.24391V5.53648H14.4532C14.6368 5.54231 14.8171 5.58698 14.9822 5.66756C15.1473 5.74813 15.2935 5.86278 15.411 6.00394C15.5286 6.1451 15.6149 6.30958 15.6643 6.48652C15.7137 6.66347 15.725 6.84887 15.6975 7.03051L14.7931 12.8686C14.7545 13.1806 14.6032 13.4677 14.3678 13.6761C14.1324 13.8844 13.829 13.9996 13.5146 14H6.09123C5.73768 14.0011 5.38983 13.9202 5.07392 13.7628L4.25848 13.3556" stroke="#322D29" stroke-width="1.5" stroke-linecap="round" stroke-linejoin="round"/>
<path d="M4.24707 6.18311V13.3225" stroke="#322D29" stroke-width="1.5" stroke-linecap="round" stroke-linejoin="round"/>
</svg>
