<svg width="15" height="14" viewBox="0 0 15 14" fill="none" xmlns="http://www.w3.org/2000/svg">
<path d="M8.00471 1.30205L9.59847 4.39916C9.63472 4.47777 9.69174 4.54586 9.76384 4.59665C9.83595 4.64743 9.92063 4.67914 10.0094 4.68861L13.5277 5.19032C13.6296 5.20293 13.7256 5.24317 13.8046 5.30635C13.8836 5.36953 13.9423 5.45304 13.9739 5.54713C14.0054 5.64122 14.0085 5.742 13.9827 5.8377C13.957 5.93341 13.9035 6.02009 13.8284 6.08762L11.2925 8.50934C11.2277 8.56755 11.1792 8.6404 11.1511 8.72129C11.1231 8.80217 11.1166 8.88851 11.1321 8.97246L11.7435 12.3783C11.7612 12.4762 11.75 12.5769 11.7112 12.6689C11.6724 12.7609 11.6075 12.8407 11.524 12.899C11.4404 12.9573 11.3416 12.9918 11.2386 12.9987C11.1357 13.0056 11.0328 12.9845 10.9416 12.9379L7.77417 11.3266C7.69306 11.2883 7.60391 11.2684 7.51355 11.2684C7.4232 11.2684 7.33405 11.2883 7.25294 11.3266L4.08547 12.9379C3.99435 12.9845 3.89145 13.0056 3.7885 12.9987C3.68555 12.9918 3.58667 12.9573 3.50312 12.899C3.41956 12.8407 3.35469 12.7609 3.31588 12.6689C3.27707 12.5769 3.26588 12.4762 3.28358 12.3783L3.89503 8.93387C3.91052 8.84992 3.90397 8.76358 3.87596 8.6827C3.84795 8.60181 3.79937 8.52895 3.73465 8.47075L1.1686 6.08762C1.09268 6.01824 1.03929 5.92916 1.0149 5.83118C0.990508 5.73319 0.996156 5.6305 1.03116 5.53554C1.06617 5.44058 1.12903 5.35743 1.21213 5.29615C1.29524 5.23488 1.39501 5.19812 1.49938 5.19032L5.01767 4.68861C5.10648 4.67914 5.19116 4.64743 5.26326 4.59665C5.33537 4.54586 5.39239 4.47777 5.42864 4.39916L7.0224 1.30205C7.0658 1.21185 7.1351 1.13548 7.22213 1.08196C7.30916 1.02844 7.41028 1 7.51355 1C7.61683 1 7.71795 1.02844 7.80498 1.08196C7.892 1.13548 7.96131 1.21185 8.00471 1.30205Z" fill="#F2BC79" stroke="#3E3E3E" stroke-width="1.5" stroke-linecap="round" stroke-linejoin="round"/>
</svg>
