<svg width="81" height="81" viewBox="0 0 81 81" fill="none" xmlns="http://www.w3.org/2000/svg">
<rect width="81" height="81" fill="white"/>
<path d="M54 35.6321V74.1269C54 75.1608 53.1112 76 52.013 76H28.9868C27.8899 76 27 75.1608 27 74.1269V35.6321C27 34.7235 27.6881 33.9655 28.6018 33.7963C29.3852 33.402 31.4243 32.2548 34.2719 29.7727C37.6578 26.8201 36.591 24.5562 36.591 24.5562C36.591 24.5562 36.1071 22.9099 36.0346 19.6629C36.028 19.3956 36.0247 19.1181 36.0247 18.8288C36.0247 15.6749 37.2421 13.2045 37.2421 13.2045V4.00001H43.811V13.2045C43.811 13.2045 45.0299 15.6749 45.0299 18.8288C45.0299 19.1181 45.0265 19.3956 45.02 19.6629C44.9473 22.9099 44.4623 24.5562 44.4623 24.5562C44.4623 24.5562 43.3954 26.8201 46.7814 29.7727C49.6831 32.3022 51.7462 33.446 52.496 33.8183C52.9237 33.9198 53.2969 34.1499 53.5639 34.4646C53.8373 34.7844 54 35.1905 54 35.6321Z" fill="#E84207"/>
<path d="M53.9994 35.6321V74.1269C53.9994 75.1608 53.1106 76 52.0124 76H49.0086C47.9928 75.242 46.5311 74.4603 44.4333 73.8393C42.251 73.1913 36.4015 73.5838 35.4617 71.6177C33.2295 66.9461 40.5263 63.1797 46.3607 53.8855C50.9988 46.4948 52.8362 39.0872 53.5632 34.4646C53.8367 34.7844 53.9994 35.1905 53.9994 35.6321Z" fill="#A52700"/>
<path d="M29.2061 68.2269H51.7938V43.0686H29.2061V68.2269Z" fill="#0F0B09"/>
<path d="M45.0305 18.8288C45.0305 19.1182 45.0271 19.3956 45.0207 19.663H36.0353C36.0286 19.3956 36.0254 19.1182 36.0254 18.8288C36.0254 15.6749 37.2428 13.2046 37.2428 13.2046V4.00006H43.8117V13.2046C43.8117 13.2046 45.0305 15.6749 45.0305 18.8288Z" fill="#0F0B09"/>
<path d="M37.2653 19.0487C37.2653 19.0487 36.976 17.6511 37.3707 15.9168C37.7436 14.2789 38.3506 13.5277 38.3506 13.5277V3.99998H40.5277V13.5277C40.5277 13.5277 39.1465 14.5158 38.4208 15.8559C37.3378 17.8575 37.2653 19.0487 37.2653 19.0487Z" fill="#8C816F"/>
<path d="M48.4971 54.2052C46.3668 51.7399 43.5666 50.2459 40.5001 50.2459C38.9466 50.2459 37.4613 50.6283 36.0967 51.3288C36.5186 49.4202 36.9896 47.7857 37.5374 46.6487C37.7752 46.1546 38.038 45.6995 38.3214 45.2765C39.0339 45.1513 39.7613 45.0853 40.5001 45.0853C44.1936 45.0853 47.595 46.7215 50.305 49.471L48.4971 54.2052Z" fill="#D4D3D3"/>
<path d="M31.0087 73.3281C30.9378 73.3281 30.8654 73.3146 30.7918 73.2892C30.0669 73.0354 29.5525 71.0964 29.2139 68.2267H33.2261C32.61 71.2537 31.9175 73.3281 31.0087 73.3281ZM40.2852 43.0683H29.2151C29.5276 39.5015 29.9549 36.9178 30.4544 36.3679C31.6277 35.0735 36.1688 34.4441 40.5073 34.4441C45.0885 34.4441 49.4438 35.1463 49.3697 36.5117C49.2077 39.4728 44.0999 39.7604 40.2852 43.0683Z" fill="#F07D4A"/>
<path d="M33.2258 68.2269H29.2136C29.2114 68.2032 29.2084 68.1813 29.2061 68.1576V43.1785C29.2093 43.1412 29.2125 43.1057 29.2149 43.0685H40.2849C39.5717 43.6861 38.9034 44.4102 38.3211 45.2765C35.473 45.7841 32.8629 47.2714 30.6949 49.471L32.5024 54.2053C33.5537 52.9887 34.7677 52.009 36.0964 51.3288C34.9673 56.4336 34.1893 63.4944 33.2258 68.2269Z" fill="#61584C"/>
<path d="M32.5027 54.2052L30.6953 49.471C32.8633 47.2714 35.4733 45.7841 38.3215 45.2765C38.0381 45.6995 37.7752 46.1546 37.5375 46.6487C36.9897 47.7857 36.5187 49.4202 36.0967 51.3288C34.768 52.009 33.554 52.9886 32.5027 54.2052Z" fill="#E3DCD1"/>
</svg>
