<svg width="160" height="160" viewBox="0 0 160 160" fill="none" xmlns="http://www.w3.org/2000/svg">
<path d="M108.572 70.2936V155.838C108.572 158.135 106.69 160 104.366 160H55.6336C53.3121 160 51.4287 158.135 51.4287 155.838V70.2936C51.4287 68.2745 52.8849 66.59 54.8188 66.214C56.4768 65.3379 60.7923 62.7886 66.8189 57.2727C73.9849 50.7115 71.7272 45.6806 71.7272 45.6806C71.7272 45.6806 70.7031 42.0221 70.5495 34.8066C70.5355 34.2125 70.5286 33.5959 70.5286 32.953C70.5286 25.9443 73.1052 20.4547 73.1052 20.4547V0.000190676H87.0076V20.4547C87.0076 20.4547 89.5872 25.9443 89.5872 32.953C89.5872 33.5959 89.5799 34.2125 89.5663 34.8066C89.4124 42.0221 88.3859 45.6806 88.3859 45.6806C88.3859 45.6806 86.1279 50.7115 93.2942 57.2727C99.4353 62.8939 103.802 65.4357 105.389 66.2629C106.294 66.4885 107.083 66.9999 107.649 67.6992C108.227 68.4099 108.572 69.3123 108.572 70.2936Z" fill="#E84207"/>
<path d="M108.572 70.2936V155.838C108.572 158.135 106.691 160 104.366 160H98.0092C95.8595 158.316 92.7658 156.578 88.3261 155.198C83.7074 153.758 71.3276 154.631 69.3386 150.262C64.6143 139.88 80.0573 131.51 92.4051 110.857C102.221 94.4329 106.11 77.9716 107.649 67.6992C108.227 68.4099 108.572 69.3123 108.572 70.2936Z" fill="#A52700"/>
<path d="M56.0977 142.727H103.902V86.8193H56.0977V142.727Z" fill="#0F0B09"/>
<path d="M89.5898 32.9535C89.5898 33.5964 89.5825 34.213 89.5689 34.8071H70.5521C70.5381 34.213 70.5312 33.5964 70.5312 32.9535C70.5312 25.9448 73.1078 20.4552 73.1078 20.4552V0.000721534H87.0102V20.4552C87.0102 20.4552 89.5898 25.9448 89.5898 32.9535Z" fill="#0F0B09"/>
<path d="M73.1548 33.4419C73.1548 33.4419 72.5426 30.3361 73.3779 26.4821C74.1672 22.8424 75.4516 21.1729 75.4516 21.1729V0.000324362H80.0593V21.1729C80.0593 21.1729 77.1362 23.3688 75.6002 26.3467C73.3083 30.7948 73.1548 33.4419 73.1548 33.4419Z" fill="#8C816F"/>
<path d="M96.9249 111.568C92.4164 106.089 86.49 102.769 80.0002 102.769C76.7123 102.769 73.5688 103.619 70.6807 105.176C71.5737 100.934 72.5705 97.3022 73.7299 94.7754C74.233 93.6775 74.7894 92.6661 75.389 91.7261C76.8969 91.4478 78.4364 91.3012 80.0002 91.3012C87.8171 91.3012 95.0157 94.9371 100.751 101.047L96.9249 111.568Z" fill="#D4D3D3"/>
<path d="M59.9129 154.062C59.7628 154.062 59.6096 154.032 59.4538 153.976C57.9197 153.412 56.831 149.103 56.1143 142.726H64.6057C63.3019 149.453 61.8361 154.062 59.9129 154.062ZM79.5456 86.8184H56.1169C56.7781 78.8923 57.6826 73.1508 58.7398 71.9288C61.2228 69.0524 70.8338 67.6536 80.0157 67.6536C89.7114 67.6536 98.929 69.2141 98.7721 72.2484C98.4293 78.8284 87.619 79.4676 79.5456 86.8184Z" fill="#F07D4A"/>
<path d="M64.6051 142.727H56.1136C56.1091 142.674 56.1026 142.625 56.0977 142.572V87.0634C56.1045 86.9806 56.1113 86.9017 56.1163 86.819H79.545C78.0355 88.1914 76.6211 89.8006 75.3887 91.7258C69.3609 92.8538 63.837 96.1588 59.2487 101.047L63.074 111.567C65.299 108.864 67.8682 106.687 70.6804 105.175C68.2908 116.519 66.6442 132.21 64.6051 142.727Z" fill="#61584C"/>
<path d="M63.0752 111.568L59.25 101.047C63.8383 96.1591 69.3622 92.8541 75.39 91.7261C74.7903 92.6661 74.234 93.6775 73.7309 94.7754C72.5714 97.3022 71.5746 100.934 70.6816 105.176C67.8695 106.687 65.3002 108.864 63.0752 111.568Z" fill="#E3DCD1"/>
</svg>
