<svg width="81" height="81" viewBox="0 0 81 81" fill="none" xmlns="http://www.w3.org/2000/svg">
<path d="M52.6496 39.7074V72.1874C52.6496 73.0597 51.8497 73.7678 50.8613 73.7678H30.1377C29.1505 73.7678 28.3496 73.0597 28.3496 72.1874V39.7074C28.3496 38.9408 28.9689 38.3012 29.7913 38.1585C30.4963 37.8258 32.3315 36.8579 34.8943 34.7635C37.9416 32.2723 36.9815 30.3622 36.9815 30.3622C36.9815 30.3622 36.546 28.9731 36.4807 26.2335C36.4748 26.0079 36.4719 25.7738 36.4719 25.5297C36.4719 22.8686 37.5675 20.7842 37.5675 20.7842V13.0179H43.4795V20.7842C43.4795 20.7842 44.5765 22.8686 44.5765 25.5297C44.5765 25.7738 44.5734 26.0079 44.5676 26.2335C44.5022 28.9731 44.0657 30.3622 44.0657 30.3622C44.0657 30.3622 43.1054 32.2723 46.1529 34.7635C48.7644 36.8979 50.6212 37.8629 51.296 38.177C51.681 38.2627 52.0168 38.4568 52.2571 38.7224C52.5032 38.9922 52.6496 39.3348 52.6496 39.7074Z" fill="#E84207"/>
<path d="M52.6493 39.7074V72.1874C52.6493 73.0597 51.8494 73.7678 50.8611 73.7678H48.1576C47.2435 73.1282 45.9279 72.4687 44.0399 71.9447C42.0758 71.398 36.8113 71.7292 35.9655 70.0703C33.9564 66.1286 40.5236 62.9507 45.7745 55.1087C49.9488 48.8728 51.6025 42.6227 52.2568 38.7224C52.5029 38.9922 52.6493 39.3348 52.6493 39.7074Z" fill="#A52700"/>
<path d="M30.335 67.2092H50.6639V45.982H30.335V67.2092Z" fill="#0F0B09"/>
<path d="M44.5773 25.5298C44.5773 25.774 44.5742 26.0081 44.5684 26.2336H36.4815C36.4756 26.0081 36.4727 25.774 36.4727 25.5298C36.4727 22.8687 37.5683 20.7844 37.5683 20.7844V13.0181H43.4803V20.7844C43.4803 20.7844 44.5773 22.8687 44.5773 25.5298Z" fill="#0F0B09"/>
<path d="M37.5881 25.7151C37.5881 25.7151 37.3278 24.5358 37.683 23.0725C38.0186 21.6906 38.5648 21.0567 38.5648 21.0567V13.0177H40.5242V21.0567C40.5242 21.0567 39.2812 21.8905 38.628 23.0211C37.6534 24.71 37.5881 25.7151 37.5881 25.7151Z" fill="#8C816F"/>
<path d="M47.6965 55.3787C45.7792 53.2986 43.2591 52.038 40.4992 52.038C39.1011 52.038 37.7643 52.3607 36.5361 52.9517C36.9159 51.3413 37.3398 49.9622 37.8328 49.0029C38.0468 48.586 38.2834 48.202 38.5384 47.8451C39.1796 47.7394 39.8343 47.6837 40.4992 47.6837C43.8234 47.6837 46.8846 49.0643 49.3237 51.3842L47.6965 55.3787Z" fill="#D4D3D3"/>
<path d="M31.9572 71.5134C31.8933 71.5134 31.8282 71.502 31.7619 71.4806C31.1096 71.2665 30.6466 69.6304 30.3418 67.2091H33.9528C33.3983 69.7632 32.775 71.5134 31.9572 71.5134ZM40.306 45.9817H30.3429C30.6241 42.9723 31.0087 40.7923 31.4583 40.3283C32.5142 39.2362 36.6013 38.7051 40.5059 38.7051C44.629 38.7051 48.5488 39.2975 48.482 40.4496C48.3363 42.948 43.7392 43.1907 40.306 45.9817Z" fill="#F07D4A"/>
<path d="M33.9527 67.2092H30.3417C30.3398 67.1892 30.3371 67.1707 30.335 67.1507V46.0746C30.3379 46.0432 30.3408 46.0132 30.3429 45.9818H40.3059C39.664 46.5029 39.0626 47.1139 38.5385 47.8449C35.9752 48.2732 33.6261 49.528 31.675 51.384L33.3016 55.3785C34.2478 54.352 35.3404 53.5254 36.5363 52.9515C35.5201 57.2586 34.8199 63.2161 33.9527 67.2092Z" fill="#61584C"/>
<path d="M33.3025 55.3787L31.6758 51.3842C33.627 49.5282 35.976 48.2734 38.5393 47.8451C38.2843 48.202 38.0477 48.586 37.8338 49.0029C37.3407 49.9622 36.9168 51.3413 36.5371 52.9517C35.3412 53.5256 34.2486 54.3522 33.3025 55.3787Z" fill="#E3DCD1"/>
</svg>
