<svg width="140" height="140" viewBox="0 0 140 140" fill="none" xmlns="http://www.w3.org/2000/svg">
<path d="M91 63.2055V123.086C91 124.695 89.6174 126 87.9091 126H52.0906C50.3843 126 49 124.695 49 123.086V63.2055C49 61.7921 50.0703 60.613 51.4917 60.3498C52.7104 59.7365 55.8822 57.952 60.3118 54.0909C65.5788 49.498 63.9194 45.9764 63.9194 45.9764C63.9194 45.9764 63.1667 43.4154 63.0538 38.3646C63.0435 37.9488 63.0385 37.5171 63.0385 37.0671C63.0385 32.161 64.9322 28.3183 64.9322 28.3183V14.0001H75.1505V28.3183C75.1505 28.3183 77.0465 32.161 77.0465 37.0671C77.0465 37.5171 77.0412 37.9488 77.0311 38.3646C76.918 43.4154 76.1636 45.9764 76.1636 45.9764C76.1636 45.9764 74.5039 49.498 79.7711 54.0909C84.2848 58.0257 87.4941 59.805 88.6605 60.384C89.3258 60.5419 89.9062 60.8999 90.3216 61.3895C90.7469 61.8869 91 62.5186 91 63.2055Z" fill="#E84207"/>
<path d="M90.9996 63.2055V123.086C90.9996 124.695 89.617 126 87.9087 126H83.2361C81.6561 124.821 79.3822 123.605 76.119 122.639C72.7243 121.631 63.6252 122.241 62.1632 119.183C58.6908 111.916 70.0415 106.057 79.1171 91.5996C86.332 80.103 89.1902 68.5801 90.3211 61.3895C90.7465 61.8869 90.9996 62.5186 90.9996 63.2055Z" fill="#A52700"/>
<path d="M52.4316 113.909H87.5681V74.7736H52.4316V113.909Z" fill="#0F0B09"/>
<path d="M77.048 37.0674C77.048 37.5175 77.0427 37.9491 77.0327 38.365H63.0554C63.0451 37.9491 63.04 37.5175 63.04 37.0674C63.04 32.1614 64.9338 28.3186 64.9338 28.3186V14.0005H75.1521V28.3186C75.1521 28.3186 77.048 32.1614 77.048 37.0674Z" fill="#0F0B09"/>
<path d="M64.9686 37.4092C64.9686 37.4092 64.5186 35.2351 65.1325 32.5373C65.7127 29.9895 66.6567 28.8209 66.6567 28.8209V14.0001H70.0434V28.8209C70.0434 28.8209 67.8949 30.358 66.7659 32.4425C65.0814 35.5562 64.9686 37.4092 64.9686 37.4092Z" fill="#8C816F"/>
<path d="M82.4399 92.0972C79.1261 88.2623 74.7703 85.9383 70.0002 85.9383C67.5836 85.9383 65.2732 86.5331 63.1504 87.6228C63.8068 84.6538 64.5394 82.1113 65.3916 80.3426C65.7614 79.5741 66.1703 78.8661 66.6111 78.2081C67.7194 78.0133 68.8508 77.9106 70.0002 77.9106C75.7456 77.9106 81.0366 80.4558 85.2523 84.7328L82.4399 92.0972Z" fill="#D4D3D3"/>
<path d="M55.2354 121.844C55.125 121.844 55.0125 121.823 54.8979 121.783C53.7704 121.388 52.9701 118.372 52.4434 113.908H58.6846C57.7263 118.617 56.6489 121.844 55.2354 121.844ZM69.6654 74.7729H52.4453C52.9313 69.2246 53.5961 65.2056 54.3731 64.3502C56.1981 62.3367 63.2622 61.3576 70.0109 61.3576C77.1372 61.3576 83.9122 62.4498 83.7969 64.5739C83.5449 69.1799 75.5994 69.6273 69.6654 74.7729Z" fill="#F07D4A"/>
<path d="M58.6846 113.909H52.4434C52.44 113.872 52.4353 113.838 52.4316 113.801V74.9444C52.4367 74.8865 52.4417 74.8313 52.4453 74.7734H69.6654C68.556 75.734 67.5164 76.8605 66.6106 78.2081C62.1802 78.9977 58.1201 81.3113 54.7477 84.7329L57.5592 92.0972C59.1946 90.2048 61.083 88.6809 63.1499 87.6228C61.3936 95.5636 60.1834 106.547 58.6846 113.909Z" fill="#61584C"/>
<path d="M57.5606 92.0972L54.749 84.7328C58.1214 81.3112 62.1815 78.9977 66.6119 78.2081C66.1712 78.8661 65.7623 79.5741 65.3925 80.3426C64.5403 82.1113 63.8076 84.6538 63.1513 87.6228C61.0844 88.6808 59.1959 90.2048 57.5606 92.0972Z" fill="#E3DCD1"/>
</svg>
