<svg width="27" height="40" viewBox="0 0 27 40" fill="none" xmlns="http://www.w3.org/2000/svg">
<path fill-rule="evenodd" clip-rule="evenodd" d="M12.9125 40C17.0548 40 20.4334 38.9807 20.4334 37.7311C20.4334 36.4811 17.0548 35.4618 12.9125 35.4618C8.76999 35.4618 5.3916 36.4811 5.3916 37.7311C5.3916 38.9807 8.76999 40 12.9125 40Z" fill="#BCE3D4"/>
<path fill-rule="evenodd" clip-rule="evenodd" d="M12.913 39.1582C3.4704 39.1582 3.4704 35.4617 12.913 35.4617C22.3556 35.4617 22.3556 39.1582 12.913 39.1582Z" fill="#C9F1DF"/>
<path fill-rule="evenodd" clip-rule="evenodd" d="M12.9132 38.5967C5.88571 38.5967 5.88571 35.6138 12.9132 35.6138C19.9408 35.6138 19.9408 38.5967 12.9132 38.5967Z" fill="#DCFDEF"/>
<path fill-rule="evenodd" clip-rule="evenodd" d="M9.96524 36.6798L11.7016 34.9434C12.3748 34.2698 13.4734 34.2698 14.1468 34.9434L15.8832 36.6798C17.4588 38.2554 8.28969 38.3551 9.96524 36.6798Z" fill="#BCE3D4"/>
<path fill-rule="evenodd" clip-rule="evenodd" d="M10.5312 36.46L11.9341 34.7236C12.478 34.0504 13.3655 34.0504 13.9096 34.7236L15.3123 36.46C16.5851 38.0356 9.17762 38.1355 10.5312 36.46Z" fill="#C9F1DF"/>
<path fill-rule="evenodd" clip-rule="evenodd" d="M11.0141 36.521L12.1326 35.1368C12.5661 34.6 13.2735 34.6 13.7073 35.1368L14.8255 36.521C15.8402 37.7771 9.93525 37.8567 11.0141 36.521Z" fill="#DCFDEF"/>
<path fill-rule="evenodd" clip-rule="evenodd" d="M14.3501 34.4588C14.5287 34.6327 14.6325 34.841 14.6325 35.0649C14.6325 35.6743 13.8627 36.1685 12.9126 36.1685C11.9626 36.1685 11.1924 35.6743 11.1924 35.0649C11.1924 34.841 11.2966 34.6327 11.4749 34.4588C11.8217 34.121 11.9976 33.7043 11.9976 33.2202V20.6764C11.9976 20.173 12.4094 19.7614 12.9126 19.7614C13.4159 19.7614 13.8275 20.173 13.8275 20.6764V33.2202C13.8275 33.7043 14.0032 34.121 14.3501 34.4588Z" fill="#BCE3D4"/>
<path fill-rule="evenodd" clip-rule="evenodd" d="M13.8999 34.4588C14.0225 34.6327 14.0939 34.841 14.0939 35.0649C14.0939 35.6743 13.5651 36.1685 12.9131 36.1685C12.2611 36.1685 11.7324 35.6743 11.7324 35.0649C11.7324 34.841 11.8038 34.6327 11.9264 34.4588C12.1644 34.121 12.285 33.7043 12.285 33.2202V20.6764C12.285 20.173 12.5677 19.7614 12.9131 19.7614C13.2584 19.7614 13.5411 20.173 13.5411 20.6764V33.2202C13.5411 33.7043 13.6619 34.121 13.8999 34.4588Z" fill="#C9F1DF"/>
<path fill-rule="evenodd" clip-rule="evenodd" d="M13.5174 34.4588C13.5925 34.6327 13.636 34.841 13.636 35.0649C13.636 35.6743 13.3122 36.1685 12.9128 36.1685C12.5134 36.1685 12.1895 35.6743 12.1895 35.0649C12.1895 34.841 12.2333 34.6327 12.3084 34.4588C12.4542 34.121 12.528 33.7043 12.528 33.2202V20.6764C12.528 20.173 12.7013 19.7614 12.9128 19.7614C13.1245 19.7614 13.2975 20.173 13.2975 20.6764V33.2202C13.2975 33.7043 13.3716 34.121 13.5174 34.4588Z" fill="#DCFDEF"/>
<path d="M12.9126 33.1438C12.7862 33.1438 12.6826 33.0402 12.6826 32.9138V21.7002C12.6826 21.6072 12.7387 21.5267 12.8187 21.4905C12.85 21.4913 12.8812 21.4916 12.9126 21.4916C12.9439 21.4916 12.9752 21.4913 13.0064 21.4905C13.0864 21.5267 13.1425 21.6072 13.1425 21.7002V32.9138C13.1425 33.0402 13.039 33.1438 12.9126 33.1438Z" fill="#EDFEF7"/>
<path fill-rule="evenodd" clip-rule="evenodd" d="M10.0071 19.0797C9.95937 22.2957 15.8674 22.2957 15.8196 19.0797C14.7909 19.4572 14.1163 19.3742 12.9133 19.3104C11.7103 19.3742 11.0358 19.4572 10.0071 19.0797Z" fill="#B1CAC5"/>
<path fill-rule="evenodd" clip-rule="evenodd" d="M6.01045 14.3109C5.89705 21.9485 19.9284 21.9485 19.8152 14.3109C17.372 15.2072 15.7697 15.0099 12.9127 14.8587C10.0558 15.0099 8.45343 15.2072 6.01045 14.3109Z" fill="#C5EDE9"/>
<path fill-rule="evenodd" clip-rule="evenodd" d="M6.01045 13.746C5.89705 21.3835 19.9284 21.3835 19.8152 13.746C17.372 14.6424 15.7697 14.4451 12.9127 14.2937C10.0558 14.4451 8.45343 14.6424 6.01045 13.746Z" fill="#FFC2D3"/>
<path d="M12.875 19.1094C10.7897 19.1094 8.70427 18.318 7.49707 16.7359C7.84096 16.8246 8.19093 16.9046 8.54606 16.9758C9.44939 17.7831 10.6197 18.2737 11.8481 18.4485C11.4012 18.5628 10.9453 18.6484 10.4851 18.7054C10.9481 18.7629 11.4152 18.7917 11.8822 18.7917C14.1008 18.7917 16.3155 18.1419 18.0541 16.8349C18.1043 16.8231 18.1539 16.8111 18.2039 16.7988C16.9898 18.3392 14.9324 19.1094 12.875 19.1094Z" fill="#FFA6BD"/>
<path d="M11.848 18.4485C10.6195 18.2737 9.44922 17.783 8.5459 16.9758C9.97252 17.2612 11.4805 17.4047 12.9875 17.4045C13.4903 17.4045 13.9922 17.3886 14.4916 17.3565C13.6753 17.8461 12.7812 18.2097 11.848 18.4485Z" fill="#FF8EA9"/>
<path fill-rule="evenodd" clip-rule="evenodd" d="M25.7475 9.5165C25.9048 20.1136 -0.0770493 19.9539 0.0778382 9.5165C3.31702 10.7051 7.24065 11.8372 12.4087 11.8372C12.5765 11.8372 12.7445 11.8361 12.9127 11.8341C13.0808 11.8361 13.2488 11.8372 13.4168 11.8372C18.5845 11.8372 22.5081 10.7051 25.7475 9.5165Z" fill="#DCFDEF"/>
<path fill-rule="evenodd" clip-rule="evenodd" d="M24.9222 9.62966C25.0694 19.1357 0.759035 18.9924 0.903966 9.62966C3.93497 10.696 7.60617 11.7114 12.4416 11.7114C12.5985 11.7114 12.7558 11.7107 12.9131 11.7087C13.0706 11.7107 13.2277 11.7114 13.3848 11.7114C18.2202 11.7114 21.8914 10.696 24.9222 9.62966Z" fill="#FFC2D3"/>
<path d="M13.4341 16.3306C8.73847 16.3309 4.02952 14.7922 2.40505 11.742C2.7281 11.8792 3.07918 12.0098 3.45607 12.1329C5.59444 14.2566 9.51899 15.3267 13.4341 15.3264C14.6594 15.3264 15.8839 15.2216 17.0521 15.0113C16.7521 15.4322 16.4166 15.8178 16.0517 16.1681C15.1934 16.2765 14.3141 16.3306 13.4341 16.3306ZM19.5758 15.3599C19.9035 14.9489 20.1955 14.5012 20.4461 14.0159C21.8733 13.3984 23.0669 12.5615 23.8612 11.5043C24.1522 11.3596 24.4133 11.2086 24.6417 11.0522C23.9475 13.0656 22.0262 14.4998 19.5758 15.3599ZM2.60474 11.081C2.38587 10.9794 2.18673 10.8743 2.00916 10.7662L2.00879 10.7655C2.18636 10.8737 2.3855 10.9788 2.60437 11.0802L2.60474 11.081Z" fill="#FF94AF"/>
<path d="M24.7491 9.31763C24.7037 9.03459 24.5223 8.76059 24.2223 8.50078C24.2232 8.50041 24.2239 8.50004 24.2249 8.49986C24.5236 8.75985 24.7041 9.03404 24.7493 9.31763C24.7491 9.31763 24.7493 9.31763 24.7491 9.31763ZM1.81152 8.28154C1.81152 8.28043 1.81152 8.27914 1.81152 8.27804C1.82037 8.27195 1.82886 8.26624 1.83771 8.26015C1.839 8.2607 1.83992 8.26089 1.84121 8.26144C1.83107 8.26808 1.8213 8.27472 1.81152 8.28154Z" fill="#F8BDC8"/>
<path d="M24.7285 9.69751C24.7501 9.61859 24.761 9.53875 24.761 9.45836C24.761 9.53875 24.7501 9.61841 24.7287 9.69733C24.7285 9.69751 24.7287 9.69751 24.7285 9.69751ZM24.761 9.45836C24.761 9.41115 24.7573 9.36432 24.7497 9.31748C24.7499 9.31748 24.7497 9.31748 24.7499 9.31748C24.7573 9.36413 24.761 9.41115 24.761 9.45836Z" fill="#F890A5"/>
<path d="M13.4343 15.3264C9.51912 15.3268 5.59456 14.2566 3.45619 12.133C5.80643 12.901 9.1566 13.3813 12.8745 13.3813C14.7289 13.3813 16.492 13.2618 18.0849 13.0468C17.8198 13.7702 17.4702 14.4251 17.0522 15.0113C15.8841 15.2217 14.6595 15.3264 13.4343 15.3264ZM20.4462 14.016C20.6909 13.5421 20.896 13.0326 21.0553 12.4875C22.1598 12.2104 23.1105 11.878 23.8613 11.5044C23.067 12.5615 21.8734 13.3984 20.4462 14.016ZM12.8745 12.6789C12.8789 12.6789 12.8835 12.6789 12.8879 12.6789H12.8881C12.8837 12.6789 12.8789 12.6789 12.8745 12.6789ZM12.8575 12.6789C12.8533 12.6789 12.8486 12.6789 12.8444 12.6789H12.845C12.8494 12.6789 12.8531 12.6789 12.8575 12.6789ZM12.8914 12.6789C12.8958 12.6789 12.8995 12.6789 12.904 12.6789H12.9047C12.9003 12.6789 12.8958 12.6789 12.8914 12.6789ZM12.8422 12.6789C12.8381 12.6789 12.8343 12.6789 12.8302 12.6789C12.8309 12.6789 12.8313 12.6789 12.8321 12.6789C12.8348 12.6789 12.838 12.6789 12.8407 12.6789C12.8411 12.6789 12.8418 12.6789 12.8422 12.6789ZM12.9067 12.6789C12.9071 12.6789 12.908 12.6789 12.9082 12.6789C12.9112 12.6789 12.9141 12.6789 12.9169 12.6789C12.9176 12.6789 12.918 12.6789 12.9187 12.6789C12.9147 12.6789 12.9108 12.6789 12.9067 12.6789ZM12.8273 12.6789C12.8228 12.6789 12.8191 12.6789 12.8147 12.6789C12.8155 12.6789 12.8158 12.6789 12.8164 12.6789C12.8184 12.6789 12.8204 12.6789 12.8225 12.6789C12.8239 12.6789 12.8256 12.6789 12.8273 12.6789ZM12.9218 12.6789C12.9235 12.6789 12.9252 12.6789 12.9266 12.6789C12.9283 12.6789 12.9309 12.6789 12.9325 12.6789C12.9331 12.6789 12.9336 12.6789 12.9342 12.6789C12.9298 12.6789 12.9263 12.6789 12.9218 12.6789ZM12.8107 12.6789C12.8014 12.6789 12.793 12.6789 12.7837 12.6789C12.7907 12.6789 12.7983 12.6789 12.8053 12.6789C12.8066 12.6789 12.807 12.6789 12.8081 12.6789C12.809 12.6789 12.8097 12.6789 12.8107 12.6789ZM12.9384 12.6789C12.9394 12.6789 12.9399 12.6789 12.9408 12.6789C12.9421 12.6789 12.9423 12.6789 12.9436 12.6789C12.9506 12.6789 12.9582 12.6789 12.9652 12.6789C12.956 12.6789 12.9475 12.6789 12.9384 12.6789ZM12.7806 12.6789C12.7762 12.6789 12.7721 12.6789 12.7677 12.6789C12.7723 12.6789 12.776 12.6789 12.7806 12.6789ZM12.9685 12.6789C12.9726 12.6789 12.977 12.6789 12.9812 12.6789C12.9768 12.6789 12.9729 12.6789 12.9685 12.6789ZM12.7646 12.6789C12.7609 12.6789 12.7568 12.6789 12.7533 12.6789C12.7572 12.6789 12.7607 12.6789 12.7646 12.6789ZM12.9845 12.6789C12.9884 12.6789 12.9917 12.6789 12.9956 12.6789C12.9919 12.6789 12.9882 12.6789 12.9845 12.6789ZM12.7502 12.6789C12.7454 12.6788 12.7417 12.6788 12.7369 12.6788C12.7413 12.6788 12.7458 12.6789 12.7502 12.6789ZM12.9987 12.6789C13.0033 12.6789 13.0076 12.6788 13.012 12.6788C13.0076 12.6788 13.0032 12.6789 12.9987 12.6789ZM13.0144 12.6788C13.0236 12.6788 13.033 12.6788 13.0424 12.6788C13.0332 12.6788 13.0236 12.6788 13.0144 12.6788ZM13.045 12.6788C13.0494 12.6788 13.0542 12.6788 13.0588 12.6786C13.0541 12.6788 13.0498 12.6788 13.045 12.6788ZM13.0601 12.6786C13.0699 12.6786 13.0797 12.6786 13.0893 12.6786C13.0797 12.6786 13.0697 12.6786 13.0601 12.6786ZM12.6582 12.6786C12.6488 12.6784 12.6394 12.6784 12.6298 12.6784C12.639 12.6784 12.6489 12.6784 12.6582 12.6786ZM13.0909 12.6786C13.1003 12.6784 13.1096 12.6784 13.119 12.6784C13.1094 12.6784 13.1005 12.6784 13.0909 12.6786ZM12.6124 12.6782C12.6076 12.6782 12.6027 12.6782 12.5979 12.6782C12.603 12.6782 12.6073 12.6782 12.6124 12.6782ZM13.137 12.6782C13.1415 12.6782 13.1461 12.6782 13.1505 12.6782C13.1463 12.6782 13.1413 12.6782 13.137 12.6782ZM13.152 12.6782C13.1568 12.6782 13.1608 12.6782 13.1656 12.678C13.161 12.6782 13.1568 12.6782 13.152 12.6782ZM13.168 12.678C13.1772 12.678 13.1864 12.678 13.1957 12.6778C13.1864 12.678 13.177 12.678 13.168 12.678ZM13.1986 12.6778C13.203 12.6778 13.2075 12.6778 13.2121 12.6778C13.2077 12.6778 13.203 12.6778 13.1986 12.6778ZM13.2287 12.6777C13.2331 12.6777 13.237 12.6777 13.2414 12.6775C13.2375 12.6777 13.2325 12.6777 13.2287 12.6777ZM13.2455 12.6775C13.2499 12.6775 13.2543 12.6775 13.2589 12.6775C13.2545 12.6775 13.2497 12.6775 13.2455 12.6775ZM13.2589 12.6775C13.2633 12.6773 13.2681 12.6773 13.2726 12.6773C13.2681 12.6773 13.2632 12.6773 13.2589 12.6775ZM12.4745 12.6773C12.4697 12.6773 12.4647 12.6771 12.4599 12.6771C12.4651 12.6771 12.4694 12.6773 12.4745 12.6773ZM13.275 12.6773C13.2796 12.6773 13.2838 12.6771 13.2884 12.6771C13.284 12.6771 13.2794 12.6773 13.275 12.6773ZM12.459 12.6771C12.4387 12.6769 12.419 12.6767 12.3987 12.6765C12.4188 12.6767 12.4389 12.6769 12.459 12.6771ZM13.291 12.6771C13.2951 12.6771 13.2997 12.6771 13.3037 12.6769C13.2993 12.6771 13.2952 12.6771 13.291 12.6771ZM13.3209 12.6767C13.3301 12.6767 13.3397 12.6765 13.3489 12.6765C13.3393 12.6765 13.3305 12.6767 13.3209 12.6767ZM12.3982 12.6765C12.393 12.6764 12.3884 12.6764 12.3832 12.6764C12.3884 12.6764 12.3932 12.6764 12.3982 12.6765ZM13.3515 12.6765C13.3561 12.6764 13.3603 12.6764 13.3648 12.6764C13.3605 12.6764 13.3559 12.6764 13.3515 12.6765ZM12.3829 12.6764C8.20829 12.6303 4.5889 12.0009 2.60486 11.081L2.60449 11.0803C4.58816 12.0006 8.20773 12.6303 12.3829 12.6764ZM13.3673 12.6764C13.3718 12.6764 13.3762 12.6762 13.3806 12.6762C13.3764 12.6762 13.3718 12.6764 13.3673 12.6764ZM13.3968 12.676C13.4072 12.6758 13.4166 12.6758 13.4267 12.6756C13.4169 12.6758 13.4068 12.6758 13.3968 12.676ZM13.4271 12.6756C13.4424 12.6754 13.4573 12.6753 13.4726 12.6751C13.4571 12.6753 13.4426 12.6754 13.4271 12.6756ZM13.4728 12.6751C13.4881 12.6749 13.503 12.6745 13.5183 12.6743C13.5032 12.6745 13.4879 12.6749 13.4728 12.6751ZM13.5493 12.674C15.2595 12.648 16.8737 12.5241 18.3154 12.3225C16.8733 12.5241 15.2599 12.648 13.5493 12.674ZM21.2389 11.7467C21.2389 11.7463 21.2387 11.7469 21.2389 11.7465C22.559 11.3921 23.5742 10.9542 24.168 10.4648C24.1676 10.4644 24.167 10.4639 24.1665 10.4635C24.4635 10.2196 24.6557 9.96288 24.7283 9.69754C24.7285 9.69754 24.7283 9.69754 24.7285 9.69736C24.512 10.4969 23.218 11.2154 21.2389 11.7467Z" fill="#FF7191"/>
<path fill-rule="evenodd" clip-rule="evenodd" d="M12.8746 12.679C19.4214 12.679 24.7609 11.2322 24.7609 9.4584C24.7609 7.68457 19.4214 6.23785 12.8746 6.23785C6.32784 6.23785 0.988281 7.68457 0.988281 9.4584C0.988281 11.2322 6.32784 12.679 12.8746 12.679Z" fill="#A1D2C8"/>
<path fill-rule="evenodd" clip-rule="evenodd" d="M12.8746 8.25065C18.142 8.25065 22.6083 9.17905 24.1681 10.4648C22.6081 11.7506 18.142 12.679 12.8746 12.679C7.60747 12.679 3.14099 11.7506 1.58105 10.4648C3.14081 9.17905 7.60747 8.25065 12.8746 8.25065Z" fill="#ECB9C2"/>
<path fill-rule="evenodd" clip-rule="evenodd" d="M12.8745 6.2379C6.31001 6.2379 0.988147 7.67964 0.988147 9.45845C0.988147 11.2371 6.31001 12.679 12.8745 12.679C19.4391 12.679 24.7608 11.2371 24.7608 9.45845C24.7608 7.67964 19.4391 6.2379 12.8745 6.2379ZM12.8745 5.53556C19.9849 5.53556 25.7491 7.29187 25.7491 9.45845C25.7491 11.625 19.9849 13.3813 12.8745 13.3813C5.76421 13.3813 0 11.625 0 9.45845C0 7.29187 5.76421 5.53556 12.8745 5.53556Z" fill="#C9F1DF"/>
<path d="M11.8815 18.7917C11.4144 18.7917 10.9474 18.763 10.4844 18.7055C10.9446 18.6485 11.4004 18.5629 11.8474 18.4486C12.1867 18.4969 12.5304 18.5209 12.8743 18.5209C14.4351 18.5209 15.9963 18.023 17.144 17.0279C17.4508 16.9702 17.7545 16.906 18.0534 16.835C16.3148 18.142 14.1001 18.7917 11.8815 18.7917Z" fill="#FFCEDC"/>
<path d="M12.8745 18.5208C12.5306 18.5208 12.1869 18.4968 11.8477 18.4485C12.7809 18.2097 13.675 17.8461 14.4913 17.3565C15.3914 17.299 16.2832 17.1893 17.1443 17.0277C15.9966 18.0229 14.4354 18.5208 12.8745 18.5208Z" fill="#FFBED0"/>
<path d="M14.4912 17.3567C14.8884 17.1186 15.2673 16.8505 15.6228 16.5529C16.8807 16.4049 18.0966 16.1497 19.2116 15.7861C18.857 16.1733 18.4689 16.5231 18.0536 16.8351C17.7547 16.906 17.451 16.9702 17.1442 17.0279C16.2831 17.1894 15.3914 17.2992 14.4912 17.3567Z" fill="#EDFEF7"/>
<path d="M15.623 16.5527C15.77 16.4297 15.9131 16.3014 16.0519 16.1681C17.2903 16.0119 18.4861 15.7425 19.576 15.3599C19.4591 15.5065 19.3374 15.6487 19.2118 15.7859C18.0968 16.1495 16.881 16.4047 15.623 16.5527Z" fill="#FFDEE8"/>
<path d="M16.0518 16.1682C16.4167 15.8179 16.7521 15.4323 17.0521 15.0114C18.2643 14.7932 19.4165 14.4617 20.4461 14.016C20.1956 14.5013 19.9035 14.949 19.5758 15.36C18.4859 15.7426 17.2901 16.012 16.0518 16.1682Z" fill="#FFC2D3"/>
<path d="M17.0518 15.0112C17.4698 14.4251 17.8194 13.7701 18.0845 13.0467C19.1604 12.9014 20.1582 12.7126 21.0549 12.4875C20.8955 13.0325 20.6905 13.542 20.4458 14.0159C19.4162 14.4616 18.2639 14.7931 17.0518 15.0112ZM18.315 12.3225C19.397 12.1713 20.3818 11.9764 21.2385 11.7464C21.2383 11.7468 21.2385 11.7462 21.2385 11.7466C20.3818 11.9765 19.3968 12.1713 18.315 12.3225Z" fill="#FFAAC0"/>
<path d="M18.3154 12.3225C18.4338 11.8872 18.5236 11.4299 18.5817 10.9505C19.617 10.5212 20.5648 10.0234 21.4453 9.51647C21.4526 10.311 21.3805 11.0546 21.2389 11.7465C20.3823 11.9764 19.3974 12.1713 18.3154 12.3225Z" fill="#F5D9DE"/>
<path d="M18.085 13.0469C18.1709 12.8125 18.2478 12.5713 18.3154 12.3226C19.3973 12.1714 20.3823 11.9767 21.2389 11.7467C21.1869 12.0003 21.1254 12.2479 21.0553 12.4876C20.1586 12.7128 19.1609 12.9016 18.085 13.0469Z" fill="#E2F8EE"/>
<path fill-rule="evenodd" clip-rule="evenodd" d="M9.20578 7.75911C11.0443 7.75911 12.5368 9.03841 12.5525 10.6216C11.7129 11.1714 10.5952 11.5068 9.36749 11.5068C7.98125 11.5068 6.73441 11.0792 5.87109 10.3979C6.0175 8.91966 7.45445 7.75911 9.20578 7.75911Z" fill="#C30070"/>
<path fill-rule="evenodd" clip-rule="evenodd" d="M9.418 8.38124C10.7653 8.38124 11.8577 9.32366 11.8577 10.4861C11.8577 10.6762 11.8282 10.8602 11.7736 11.0354C11.0688 11.3348 10.2463 11.5068 9.36747 11.5068C8.5368 11.5068 7.75628 11.3531 7.07846 11.0835C7.01355 10.8941 6.97852 10.6937 6.97852 10.4861C6.97852 9.32366 8.07066 8.38124 9.418 8.38124Z" fill="#C42F81"/>
<path fill-rule="evenodd" clip-rule="evenodd" d="M9.66361 8.63754C10.6731 8.63754 11.4913 9.34357 11.4913 10.2144C11.4913 10.6365 11.2992 11.0199 10.9861 11.3031C10.4812 11.4347 9.93614 11.5068 9.3673 11.5068C9.08315 11.5068 8.80472 11.4888 8.53441 11.4545C8.10902 11.1657 7.83594 10.7176 7.83594 10.2144C7.83594 9.34357 8.65426 8.63754 9.66361 8.63754Z" fill="#C84E93"/>
<path fill-rule="evenodd" clip-rule="evenodd" d="M13.5486 8.7455C15.3871 8.7455 16.8794 10.025 16.8952 11.6082C16.0557 12.1578 14.9377 12.4934 13.7101 12.4934C12.3238 12.4934 11.0772 12.0656 10.2139 11.3845C10.3603 9.90605 11.797 8.7455 13.5486 8.7455Z" fill="#C30070"/>
<path fill-rule="evenodd" clip-rule="evenodd" d="M13.761 9.36781C15.1083 9.36781 16.2004 10.31 16.2004 11.4726C16.2004 11.6627 16.1709 11.8468 16.1162 12.0219C15.4118 12.3212 14.5892 12.4934 13.7102 12.4934C12.8798 12.4934 12.0992 12.3396 11.4212 12.07C11.3563 11.8805 11.3213 11.6802 11.3213 11.4726C11.3213 10.31 12.4136 9.36781 13.761 9.36781Z" fill="#C42F81"/>
<path fill-rule="evenodd" clip-rule="evenodd" d="M14.0064 9.62393C15.0159 9.62393 15.8341 10.33 15.8341 11.2008C15.8341 11.6231 15.6419 12.0064 15.3288 12.2893C14.824 12.4213 14.2785 12.4934 13.7099 12.4934C13.4257 12.4934 13.1475 12.4753 12.8772 12.441C12.4518 12.1521 12.1787 11.704 12.1787 11.2008C12.1787 10.33 12.9969 9.62393 14.0064 9.62393Z" fill="#C84E93"/>
<path fill-rule="evenodd" clip-rule="evenodd" d="M5.93611 1.17404C6.07348 1.06174 6.30378 0.978031 6.48153 0.976556C6.54994 0.976003 6.61964 1.03962 6.65135 1.132L9.08548 8.22142C9.03662 8.29278 8.95623 8.35566 8.85574 8.39364C8.75912 8.43033 8.66102 8.43697 8.57878 8.41853L5.90513 1.40231C5.87046 1.31104 5.88319 1.21737 5.93611 1.17404Z" fill="#A8CD79"/>
<path fill-rule="evenodd" clip-rule="evenodd" d="M18.2115 3.20015C18.3837 3.24348 18.5882 3.37827 18.6955 3.52025C18.7366 3.57483 18.727 3.66868 18.6719 3.74926L14.4341 9.93186C14.3476 9.93517 14.2491 9.90825 14.1588 9.85035C14.0715 9.79448 14.0077 9.71981 13.9736 9.64273L18.0099 3.3117C18.0623 3.2291 18.1451 3.18337 18.2115 3.20015Z" fill="#A8CD79"/>
<path fill-rule="evenodd" clip-rule="evenodd" d="M6.86787 0.872545C6.19301 0.935237 7.1723 1.51514 7.12584 1.01563C7.11735 0.924174 7.00193 0.860191 6.86787 0.872545ZM5.94629 0.495648C5.997 0.259629 6.22638 0.0855686 6.38348 0.0381804C6.79651 -0.0866516 7.14575 0.108799 7.36646 0.42761L7.34009 0.435906C7.21342 0.480897 7.13561 0.587478 7.1664 0.674141C7.19701 0.76062 7.32479 0.793991 7.45147 0.749C7.47599 0.740334 7.49848 0.729455 7.51895 0.716732C7.53333 0.753425 7.54606 0.790673 7.55731 0.828658C7.6554 1.15484 7.61797 1.4471 7.51803 1.72645C7.05355 1.3396 6.79836 1.84631 7.37218 2.05743C7.20678 2.38141 6.99363 2.69948 6.85368 3.04761L5.94629 0.495648Z" fill="#9BC337"/>
<path fill-rule="evenodd" clip-rule="evenodd" d="M6.28164 2.23942C6.33622 2.39339 6.18262 2.5232 6.07235 2.49093C5.79319 2.40906 6.17156 1.93002 6.28164 2.23942ZM5.94604 0.495648C5.75778 0.344633 5.46995 0.354405 5.3182 0.416729C4.76927 0.642422 4.69625 1.26142 4.90664 1.77089C4.96417 1.90974 5.03756 2.02701 5.12385 2.12768C5.4847 1.41944 5.9844 1.81183 5.44617 2.4063C5.86528 2.70188 6.37254 2.78172 6.85343 3.04761L5.94604 0.495648Z" fill="#B0CB3F"/>
<path fill-rule="evenodd" clip-rule="evenodd" d="M17.95 2.01024C18.9009 2.33163 17.2918 2.8317 17.5296 2.12806C17.5732 1.99936 17.7614 1.94644 17.95 2.01024ZM19.4067 1.78289C19.4145 1.42517 19.1438 1.09585 18.9338 0.973786C18.3811 0.652948 17.8112 0.814841 17.384 1.19874L17.4194 1.21957C17.5864 1.32781 17.6618 1.50815 17.5881 1.62228C17.514 1.73624 17.3187 1.74103 17.1516 1.6328C17.1194 1.61178 17.0904 1.58817 17.0655 1.56291C17.0323 1.61085 17.001 1.66045 16.9717 1.71098C16.7189 2.1478 16.6726 2.58148 16.7213 3.01811C17.5226 2.61965 17.717 3.43705 16.8183 3.54492C16.9453 4.06822 17.1437 4.59944 17.2263 5.14893L19.4067 1.78289Z" fill="#9BC337"/>
<path fill-rule="evenodd" clip-rule="evenodd" d="M18.3268 4.18033C18.1953 4.38315 18.3724 4.62305 18.5426 4.6142C18.9727 4.59188 18.5912 3.77209 18.3268 4.18033ZM19.407 1.78289C19.7302 1.62966 20.1414 1.74195 20.3387 1.88393C21.0523 2.39691 20.9457 3.31369 20.4681 3.97565C20.338 4.15635 20.1917 4.29981 20.0333 4.41542C19.7557 3.27147 18.9016 3.66588 19.4732 4.70621C18.7684 4.98906 18.0104 4.93024 17.2266 5.14893L19.407 1.78289Z" fill="#B0CB3F"/>
</svg>
