<svg width="17" height="40" viewBox="0 0 17 40" fill="none" xmlns="http://www.w3.org/2000/svg">
<path d="M14.0037 26.9231C13.7209 31.3568 15.1146 40 15.1146 40H1.60478C1.60478 40 2.99955 31.3568 2.71576 26.9231C2.5535 24.3876 1.6433 17.9309 0.596283 12.9252C-0.28158 8.72614 0.0692165 4.11998e-05 0.0692165 4.11998e-05H16.6503C16.6503 4.11998e-05 17.001 8.72614 16.1232 12.9252C15.0761 17.9309 14.1658 24.3876 14.0037 26.9231Z" fill="#8DAFB7"/>
<path d="M9.74637 26.9231C9.46363 31.3568 10.8572 40 10.8572 40H1.60478C1.60478 40 2.99955 31.3568 2.71576 26.9231C2.5535 24.3876 1.6433 17.9309 0.596283 12.9252C-0.28158 8.72614 0.0692165 4.11998e-05 0.0692165 4.11998e-05H12.3929C12.3929 4.11998e-05 12.7437 8.72614 11.8658 12.9252C10.8188 17.9309 9.90852 24.3876 9.74637 26.9231Z" fill="#CEE6ED"/>
<path d="M15.4336 -7.21482e-05C15.4336 -7.21482e-05 15.4102 3.03743 15.2916 6.55122C15.17 10.0977 14.9511 14.1286 14.5587 16.0057C13.6273 20.4593 12.8174 26.2062 12.6725 28.4628C12.5031 31.1232 13.012 35.4868 13.3617 38.0469H3.34393C3.4128 37.5449 3.4888 36.9706 3.56492 36.3495C3.87298 33.8187 4.18409 30.5255 4.04634 28.3624C3.90135 26.1047 3.09155 20.3577 2.15987 15.9042C1.76868 14.0364 1.55073 10.0592 1.42909 6.55122C1.3085 3.0421 1.28516 -7.21482e-05 1.28516 -7.21482e-05H15.4336Z" fill="#DBA53A"/>
<path d="M15.4336 -1.74062e-05C15.4336 -1.74062e-05 15.4102 3.03748 15.2916 6.55127H1.42909C1.3085 3.04215 1.28516 -1.74062e-05 1.28516 -1.74062e-05H15.4336Z" fill="#DBCCBF"/>
<path d="M12.375 6.55131C12.2827 8.15527 12.1509 9.86314 11.9766 11.6819C10.9366 22.5396 8.03362 31.2856 3.56551 36.3496C3.87358 33.8187 4.18468 30.5256 4.04693 28.3625C3.90194 26.1048 3.09214 20.3578 2.16046 15.9043C1.76927 14.0365 1.55133 10.0593 1.42969 6.55131H12.375Z" fill="#F4C660"/>
<path d="M12.3744 6.55127H1.42909C1.3085 3.04215 1.28516 -1.74062e-05 1.28516 -1.74062e-05H12.5304C12.562 1.96467 12.5133 4.14065 12.3744 6.55127Z" fill="white"/>
<path d="M6.14673 10.8086C5.62281 10.8086 5.19824 10.3837 5.19824 9.85952C5.19824 9.33654 5.62281 8.91162 6.14673 8.91162C6.67065 8.91162 7.09534 9.33654 7.09534 9.85952C7.09534 10.3837 6.67065 10.8086 6.14673 10.8086Z" fill="#F9E1AC"/>
<path d="M4.51782 17.9355C3.99403 17.9355 3.56934 17.5118 3.56934 16.9877C3.56934 16.4635 3.99403 16.0386 4.51782 16.0386C5.04174 16.0386 5.46643 16.4635 5.46643 16.9877C5.46643 17.5118 5.04174 17.9355 4.51782 17.9355Z" fill="#F9E1AC"/>
<path d="M6.147 22.9609C5.71192 22.9609 5.35938 22.6072 5.35938 22.173C5.35938 21.7375 5.71192 21.385 6.147 21.385C6.58208 21.385 6.93474 21.7375 6.93474 22.173C6.93474 22.6072 6.58208 22.9609 6.147 22.9609Z" fill="#F9E1AC"/>
<path d="M8.5347 19.7764C8.09962 19.7764 7.74707 19.4238 7.74707 18.9884C7.74707 18.553 8.09962 18.2004 8.5347 18.2004C8.96989 18.2004 9.32255 18.553 9.32255 18.9884C9.32255 19.4238 8.96989 19.7764 8.5347 19.7764Z" fill="#F9E1AC"/>
<path d="M9.62087 13.7224C9.26984 13.7224 8.98535 13.4376 8.98535 13.0874C8.98535 12.736 9.26984 12.4511 9.62087 12.4511C9.9719 12.4511 10.2564 12.736 10.2564 13.0874C10.2564 13.4376 9.9719 13.7224 9.62087 13.7224Z" fill="#F9E1AC"/>
<path d="M9.12053 28.6519C8.9885 28.6519 8.85425 28.6238 8.72643 28.5655C8.55132 28.4861 8.41229 28.3588 8.31738 28.2071C8.49961 27.746 8.67565 27.2767 8.84632 26.7957C8.93504 26.7689 9.02796 26.7549 9.12182 26.7549C9.25385 26.7549 9.38809 26.7817 9.51604 26.8413C9.99244 27.0584 10.2018 27.6222 9.98369 28.0985C9.82411 28.4464 9.4802 28.6519 9.12053 28.6519Z" fill="#ECD098"/>
<path d="M8.31674 28.2073C8.1533 27.9458 8.12027 27.6096 8.25825 27.3084C8.37616 27.0516 8.59457 26.8718 8.84567 26.7959C8.675 27.2769 8.49896 27.7462 8.31674 28.2073Z" fill="#F9E1AC"/>
<path d="M5.62818 31.3113C5.51844 31.3113 5.40696 31.2879 5.30073 31.2401C4.90511 31.058 4.7314 30.591 4.91258 30.1953C5.04496 29.9058 5.3305 29.7353 5.62911 29.7353C5.73884 29.7353 5.85033 29.7587 5.95656 29.8065C6.35218 29.9886 6.526 30.4556 6.34494 30.8513C6.21245 31.1408 5.92679 31.3113 5.62818 31.3113Z" fill="#F9E1AC"/>
<path d="M10.5425 34.6033C10.454 34.6033 10.3641 34.5846 10.2784 34.5449C9.95924 34.399 9.81893 34.0219 9.96508 33.7021C10.072 33.4686 10.3023 33.3308 10.5433 33.3308C10.6318 33.3308 10.7218 33.3495 10.8075 33.3892C11.1267 33.5351 11.2669 33.9122 11.1209 34.232C11.014 34.4655 10.7834 34.6033 10.5425 34.6033Z" fill="#ECD098"/>
</svg>
