<svg width="11" height="40" viewBox="0 0 11 40" fill="none" xmlns="http://www.w3.org/2000/svg">
<path d="M10.8854 32.1499C10.886 33.9599 10.8733 35.6449 10.8588 36.9872C10.8397 38.8116 10.8159 40 10.8159 40H0.10107C0.10107 40 0.0726412 38.8116 0.0465521 36.9872C0.0407945 36.5904 0.035037 36.1649 0.0298192 35.7142C0.0268505 35.4893 0.0246017 35.2581 0.0222627 35.0215C0.0100278 33.8322 0.000850991 32.5061 0.000221254 31.1342C-0.00031852 30.8841 0.000221869 30.6331 0.000851606 30.3812C0.0037304 28.6297 0.021633 26.8322 0.0639153 25.1679C0.12365 22.819 0.231425 20.7382 0.415668 19.4364C0.599281 18.1382 1.07554 16.1321 1.59463 13.9982C2.24244 11.3389 2.95674 8.48078 3.25749 6.54479C3.44173 5.35998 3.68562 1.70301 3.68562 1.70301H7.16869C7.16869 1.70301 7.41267 5.35998 7.59637 6.54479C7.8982 8.48798 8.61664 11.3587 9.26608 14.0252C9.78291 16.1492 10.255 18.1436 10.4387 19.4364C10.623 20.7382 10.736 22.8181 10.802 25.1679C10.8165 25.6816 10.8287 26.2079 10.8385 26.7413C10.8437 26.9896 10.8477 27.2388 10.8518 27.4898C10.8727 28.8078 10.882 30.1554 10.8849 31.4545C10.8854 31.6884 10.8854 31.9196 10.8854 32.1499Z" fill="#FFAF00"/>
<path d="M7.84721 25.168H5.6103L5.25684 1.70308C5.25684 1.70308 7.30033 18.1437 7.48394 19.4365C7.66819 20.7382 7.78118 22.8182 7.84721 25.168Z" fill="#EA7500"/>
<path d="M5.83329 40H0.10107C0.10107 40 0.0726412 38.8116 0.0465521 36.9872C0.0407945 36.5904 0.0350371 36.1649 0.0298192 35.7142C0.0268505 35.4893 0.0246017 35.2581 0.0222627 35.0215C0.0100278 33.8322 0.000850991 32.5061 0.000221254 31.1342C-0.00031852 30.8841 0.000221869 30.6331 0.000851606 30.3812C0.0037304 28.6297 0.021633 26.8322 0.0639153 25.1679C0.12365 22.819 0.231425 20.7382 0.415668 19.4364C0.599281 18.1382 1.07554 16.1321 1.59463 13.9982C2.24244 11.3389 2.95674 8.48078 3.25749 6.54479C3.44173 5.35998 3.68562 1.70301 3.68562 1.70301H5.25681L5.83329 40Z" fill="#FFAF00"/>
<path d="M9.26618 14.0251C8.46659 14.8789 7.49788 15.4654 6.73545 15.837C5.99038 16.1995 5.44287 16.3569 5.44287 16.3569C5.44287 16.3569 3.17528 15.7065 1.59473 13.9981C2.24246 11.3388 2.95685 8.48073 3.2575 6.54564C3.44174 5.36084 3.68563 1.70386 3.68563 1.70386H7.16888C7.16888 1.70386 7.41277 5.36084 7.59639 6.54564C7.8983 8.48703 8.61665 11.3586 9.26618 14.0251Z" fill="#00A643"/>
<path d="M10.8849 31.4544C10.882 30.1553 10.8727 28.8077 10.8518 27.4897C10.8477 27.2387 10.8437 26.9895 10.8385 26.7413C10.8287 26.2078 10.8165 25.6815 10.802 25.1678H5.61028H5.06627H0.0639153C0.021633 26.8321 0.0037304 28.6296 0.000851606 30.3811C0.000221869 30.633 -0.00031852 30.884 0.000221254 31.1341C0.000850991 32.506 0.0100278 33.8321 0.0222627 35.0214C0.0246017 35.258 0.0268505 35.4892 0.0298192 35.7141C0.035037 36.1648 0.0407945 36.5903 0.0465521 36.9871H5.07959H5.78813H10.8588C10.8733 35.6448 10.886 33.9598 10.8854 32.1498C10.8854 31.9195 10.8854 31.6883 10.8849 31.4544Z" fill="#00A643"/>
<path d="M10.8854 32.1498L0.0298192 35.7141C0.0268505 35.4892 0.0246017 35.258 0.0222627 35.0214C0.0100278 33.8321 0.000850991 32.5061 0.000221254 31.1341C-0.00031852 30.884 0.000221869 30.633 0.000851606 30.3811L10.8385 26.7413C10.8437 26.9896 10.8477 27.2388 10.8518 27.4897C10.8727 28.8077 10.882 30.1553 10.8849 31.4544C10.8854 31.6883 10.8854 31.9195 10.8854 32.1498Z" fill="#F6E900"/>
<path d="M10.8846 31.4545L0.0220414 35.0215C0.00980656 33.8322 0.000629737 32.5061 0 31.1342L10.8516 27.4898C10.8725 28.8078 10.8818 30.1554 10.8846 31.4545Z" fill="#120302"/>
<path d="M3.36975 40H0.820574C0.820574 40 0.807798 38.799 0.800781 36.9872H3.35895C3.36471 38.799 3.36975 40 3.36975 40ZM3.34753 25.1679H0.911616C0.958216 23.6826 1.02245 22.3845 1.11025 21.4596C1.30097 19.4499 1.74593 16.9201 2.21535 14.591C2.64096 14.9527 3.08619 15.2522 3.50541 15.4942C3.44289 17.8854 3.38666 20.247 3.36975 21.5757C3.35832 22.4771 3.3513 23.7321 3.34753 25.1679Z" fill="#FFD780"/>
<path d="M3.50588 15.4941C3.08666 15.2521 2.64143 14.9526 2.21582 14.5909C2.93795 11.0086 3.71783 7.90221 3.71783 7.90221C3.71783 7.90221 3.60421 11.7346 3.50588 15.4941Z" fill="#80D3A1"/>
<path d="M3.359 36.9871H0.800833C0.799034 36.5166 0.797595 36.0047 0.796875 35.4622L3.35244 34.6229C3.3545 35.4802 3.35684 36.28 3.359 36.9871ZM0.817746 30.1067C0.834839 28.3984 0.864077 26.6855 0.911667 25.1678H3.34758C3.34425 26.4309 3.34335 27.8334 3.34398 29.2584L0.817746 30.1067Z" fill="#80D3A1"/>
<path d="M0.797325 35.4624C0.797055 35.2357 0.796875 35.0045 0.796875 34.7679L3.35118 33.9285C3.35172 34.1642 3.35226 34.3955 3.35289 34.6231L0.797325 35.4624ZM0.811449 30.8617C0.813428 30.6107 0.815677 30.3588 0.818196 30.1069L3.34443 29.2586C3.34452 29.5096 3.3447 29.7597 3.34497 30.0116L0.811449 30.8617Z" fill="#FBF480"/>
<path d="M0.796881 34.7678C0.796701 33.5542 0.800569 32.2192 0.811455 30.8617L3.34498 30.0115C3.34606 31.3484 3.34839 32.6861 3.35118 33.9285L0.796881 34.7678Z" fill="#898181"/>
<path d="M7.86058 36.9871H5.78821L5.7408 33.8393L7.85968 33.143C7.86022 34.5131 7.86049 35.8571 7.86058 36.9871ZM5.66019 28.4802L5.61035 25.1678H7.84727C7.85105 25.2974 7.85374 26.3067 7.85563 27.7434L5.66019 28.4802Z" fill="#005522"/>
<path d="M5.74076 33.8394L5.73042 33.1475L7.85938 32.4485C7.85947 32.6797 7.85956 32.9118 7.85965 33.143L5.74076 33.8394ZM5.6714 29.2297L5.66016 28.4803L7.8556 27.7435C7.85596 27.9828 7.85623 28.2347 7.85659 28.4956L5.6714 29.2297Z" fill="#7D7700"/>
<path d="M5.72991 33.1475L5.6709 29.2296L7.85609 28.4955C7.85735 29.6776 7.85824 31.0594 7.85887 32.4485L5.72991 33.1475Z" fill="#090201"/>
<path d="M6.73539 15.8369L6.01074 3.8989H6.95904C7.0902 3.8989 7.21417 3.86832 7.32437 3.81435C7.4066 4.84262 7.50835 5.97794 7.59633 6.5456C7.89824 8.48699 8.61659 11.3586 9.26612 14.0251C8.46654 14.8788 7.49782 15.4654 6.73539 15.8369Z" fill="#005522"/>
<path d="M7.78538 0.825814V3.07397C7.78538 3.53008 7.41518 3.89893 6.95916 3.89893H3.92617C3.47024 3.89893 3.10059 3.53008 3.10059 3.07397V0.825814C3.10059 0.368805 3.47024 -3.89007e-05 3.92617 -3.89007e-05H6.95916C7.36705 -3.89007e-05 7.70657 0.29593 7.77314 0.685467C7.78133 0.730449 7.78538 0.778134 7.78538 0.825814Z" fill="#00A643"/>
<path d="M6.95916 3.89893H3.92617C3.47024 3.89893 3.10059 3.53008 3.10059 3.07397V0.825814C3.10059 0.368805 3.47024 -3.89007e-05 3.92617 -3.89007e-05H6.95916C7.36705 -3.89007e-05 7.70657 0.29593 7.77314 0.685467C7.78133 0.730449 7.78538 0.778134 7.78538 0.825814V3.07397C7.78538 3.53008 7.41518 3.89893 6.95916 3.89893Z" fill="#005522"/>
<path d="M7.77314 0.685473C7.64747 2.02501 6.51889 3.07397 5.1457 3.07397H3.10059V0.82582C3.10059 0.368811 3.47024 -3.32054e-05 3.92617 -3.32054e-05H6.95916C7.36705 -3.32054e-05 7.70657 0.295936 7.77314 0.685473Z" fill="#00A643"/>
</svg>
