<svg width="42" height="112" viewBox="0 0 42 112" fill="none" xmlns="http://www.w3.org/2000/svg">
<path d="M42 49.2055V109.086C42 110.695 40.6174 112 38.9091 112H3.09058C1.38427 112 0 110.695 0 109.086V49.2055C0 47.7922 1.07032 46.613 2.49174 46.3498C3.71037 45.7365 6.88223 43.952 11.3118 40.0909C16.5788 35.498 14.9194 31.9764 14.9194 31.9764C14.9194 31.9764 14.1667 29.4154 14.0538 24.3646C14.0435 23.9488 14.0385 23.5171 14.0385 23.0671C14.0385 18.161 15.9322 14.3183 15.9322 14.3183V0.0001297H26.1505V14.3183C26.1505 14.3183 28.0465 18.161 28.0465 23.0671C28.0465 23.5171 28.0412 23.9488 28.0311 24.3646C27.918 29.4154 27.1636 31.9764 27.1636 31.9764C27.1636 31.9764 25.5039 35.498 30.7711 40.0909C35.2848 44.0257 38.4941 45.805 39.6605 46.384C40.3258 46.5419 40.9062 46.8999 41.3216 47.3895C41.7469 47.8869 42 48.5186 42 49.2055Z" fill="#E84207"/>
<path d="M41.9996 49.2055V109.086C41.9996 110.695 40.617 112 38.9087 112H34.2361C32.6561 110.821 30.3822 109.605 27.119 108.639C23.7243 107.631 14.6252 108.241 13.1632 105.183C9.69085 97.9161 21.0415 92.0573 30.1171 77.5996C37.332 66.103 40.1902 54.5801 41.3211 47.3895C41.7465 47.8869 41.9996 48.5186 41.9996 49.2055Z" fill="#A52700"/>
<path d="M3.43164 99.9087H38.5681V60.7736H3.43164V99.9087Z" fill="#0F0B09"/>
<path d="M28.048 23.0674C28.048 23.5175 28.0427 23.9491 28.0327 24.365H14.0554C14.0451 23.9491 14.04 23.5175 14.04 23.0674C14.04 18.1614 15.9338 14.3186 15.9338 14.3186V0.00050354H26.1521V14.3186C26.1521 14.3186 28.048 18.1614 28.048 23.0674Z" fill="#0F0B09"/>
<path d="M15.9686 23.4092C15.9686 23.4092 15.5186 21.2351 16.1325 18.5373C16.7127 15.9895 17.6567 14.8209 17.6567 14.8209V8.01086e-05H21.0434V14.8209C21.0434 14.8209 18.8949 16.358 17.7659 18.4425C16.0814 21.5562 15.9686 23.4092 15.9686 23.4092Z" fill="#8C816F"/>
<path d="M33.4399 78.0972C30.1261 74.2623 25.7703 71.9383 21.0002 71.9383C18.5836 71.9383 16.2732 72.5331 14.1504 73.6228C14.8068 70.6538 15.5394 68.1113 16.3916 66.3426C16.7614 65.5741 17.1703 64.8661 17.6111 64.2081C18.7194 64.0133 19.8508 63.9106 21.0002 63.9106C26.7456 63.9106 32.0366 66.4558 36.2523 70.7328L33.4399 78.0972Z" fill="#D4D3D3"/>
<path d="M6.23535 107.844C6.12502 107.844 6.01246 107.823 5.89795 107.783C4.77037 107.388 3.97014 104.372 3.44336 99.9082H9.68457C8.72625 104.617 7.64894 107.844 6.23535 107.844ZM20.6654 60.7729H3.44532C3.93132 55.2246 4.59608 51.2056 5.37312 50.3502C7.19814 48.3367 14.2622 47.3576 21.0109 47.3576C28.1372 47.3576 34.9122 48.4498 34.7969 50.5739C34.5449 55.1799 26.5994 55.6273 20.6654 60.7729Z" fill="#F07D4A"/>
<path d="M9.68458 99.9087H3.44337C3.44002 99.8718 3.43527 99.8376 3.43164 99.8008V60.9444C3.43667 60.8865 3.4417 60.8313 3.44533 60.7734H20.6654C19.556 61.734 18.5164 62.8605 17.6106 64.2081C13.1802 64.9977 9.12009 67.3113 5.74769 70.7329L8.55923 78.0972C10.1946 76.2048 12.083 74.6809 14.1499 73.6228C12.3936 81.5636 11.1834 92.547 9.68458 99.9087Z" fill="#61584C"/>
<path d="M8.56057 78.0972L5.74902 70.7328C9.12142 67.3112 13.1815 64.9977 17.6119 64.2081C17.1712 64.8661 16.7623 65.5741 16.3925 66.3426C15.5403 68.1113 14.8076 70.6538 14.1513 73.6228C12.0844 74.6808 10.1959 76.2048 8.56057 78.0972Z" fill="#E3DCD1"/>
</svg>
