<svg width="11" height="40" viewBox="0 0 11 40" fill="none" xmlns="http://www.w3.org/2000/svg">
<path d="M0 13.6189C0 12.0202 2.25198 9.21096 5.03043 9.21096C5.37849 9.21096 5.71859 9.25526 6.0469 9.33561H6.04817C8.33845 9.89731 10.0609 12.2207 10.0609 13.6189C10.0609 13.6768 10.0609 38.8458 10.0609 38.8458C10.0609 39.4834 9.54377 40 8.90623 40H1.15464C0.807857 40 0.497344 39.8476 0.286107 39.6058C0.107234 39.403 0 39.1372 0 38.8458C0 38.8458 0 13.6768 0 13.6189Z" fill="#4C1E1E"/>
<path d="M0 13.6189C0 12.0202 2.25198 9.21091 5.03043 9.21091C5.37849 9.21091 5.71859 9.25521 6.0469 9.33556H6.04817C7.79372 10.2232 9.00813 12.0502 9.00813 13.2239C9.00813 13.2825 9.00813 38.4508 9.00813 38.4508C9.00813 39.0883 8.49104 39.6057 7.85357 39.6057H0.286107C0.107234 39.403 0 39.1371 0 38.8458C0 38.8458 0 13.6767 0 13.6189Z" fill="#0A0303"/>
<path d="M6.58933 1.11894V12.8628H3.4707V1.11894H6.58933Z" fill="#0A0303"/>
<path d="M5.86656 2.25574C5.86656 3.60066 5.69677 4.85698 5.40338 5.92105C5.15332 6.82668 4.81382 7.59413 4.41185 8.15808C4.12627 8.56058 3.80983 8.86021 3.47168 9.03442V1.11883H5.82503C5.85274 1.48829 5.86656 1.86826 5.86656 2.25574Z" fill="#4C1E1E"/>
<path d="M6.58933 4.4312e-05V2.43457H3.4707V4.4312e-05H6.58933Z" fill="#0A0303"/>
<path d="M6.54976 -3.07789e-05C6.31156 1.04677 5.02739 1.84952 3.4707 1.86304V-3.07789e-05H6.54976Z" fill="#4C1E1E"/>
<path d="M2.63097 38.6228C2.4467 38.6228 2.2691 38.5913 2.10457 38.5319H2.10449C2.74399 38.3037 3.20394 37.6691 3.20394 36.9227V22.2637C3.20394 22.2637 3.20393 22.2637 3.20401 22.2637C3.81917 22.0219 4.25667 21.4001 4.25667 20.6725V36.9227C4.25667 37.8621 3.52902 38.6228 2.63097 38.6228Z" fill="#371D26"/>
<path d="M3.20377 13.7069V36.9227C3.20377 37.6692 2.74382 38.3037 2.10425 38.532C1.8668 38.4471 1.65504 38.3067 1.4812 38.125C1.18653 37.8171 1.00488 37.3921 1.00488 36.9227V13.3832C1.00488 12.8988 1.1984 12.4618 1.50959 12.1524C2.01158 12.7382 2.58057 13.2608 3.20377 13.7069Z" fill="#542D3D"/>
<path d="M3.20387 22.2637V13.7068C2.58075 13.2607 2.01176 12.7381 1.50977 12.1523H1.50984C2.01184 12.7381 2.58082 13.2607 3.20395 13.7068C3.53946 13.9471 3.89083 14.1656 4.25661 14.3601V20.6724C4.25661 21.4001 3.81911 22.0219 3.20395 22.2637C3.20387 22.2637 3.20387 22.2637 3.20387 22.2637Z" fill="#371D26"/>
<path d="M2.63065 22.3726C2.1813 22.3726 1.77534 22.1826 1.4812 21.8747L1.46543 21.8574C1.17992 21.5518 1.00488 21.1335 1.00488 20.6724V13.3831C1.00488 12.8988 1.19832 12.4617 1.50951 12.1523C2.01151 12.7381 2.58049 13.2607 3.20362 13.7068V22.2637C3.02534 22.3343 2.83258 22.3726 2.63065 22.3726Z" fill="#542D3D"/>
<path d="M4.25643 18.9618V20.6724C4.25643 21.6119 3.5287 22.3726 2.63065 22.3726C2.18137 22.3726 1.77534 22.1826 1.4812 21.8747C1.18653 21.5668 1.00488 21.1418 1.00488 20.6724V18.9618C1.00488 19.4312 1.18653 19.8562 1.4812 20.1641C1.77534 20.4719 2.18137 20.6619 2.63065 20.6619C3.5287 20.6619 4.25643 19.9012 4.25643 18.9618Z" fill="#0A0303"/>
<path d="M8.59521 17.2625V28.0647H4.25684V17.2625H8.59521Z" fill="#BFB3A9"/>
<path d="M4.25674 17.2625V28.0647H1.46582V17.2625H4.25674Z" fill="#EFE5DC"/>
<path d="M6.58952 5.92117V8.1582H4.41113C4.81311 7.59425 5.15261 6.8268 5.40267 5.92117H6.58952Z" fill="#991904"/>
<path d="M5.40338 5.92117C5.15332 6.8268 4.81382 7.59425 4.41185 8.1582H3.47168V5.92117H5.40338Z" fill="#F1310A"/>
</svg>
